<svg xmlns="http://www.w3.org/2000/svg" viewBox="0 0 1681.18 768" width="1681.18" height="768" role="img" aria-label="Secrétariat général">
  <title>Secrétariat général</title>
    <g transform="translate(128 128) scale(1)">
  <title id="iyhmo8v0-ajvt-symbol-title">AJVT — رابطة شباب قرية التاكلالت</title>

  <defs>
    <clipPath id="iyhmo8v0-roundel-clip">
      <circle cx="256" cy="256" r="254"/>
    </clipPath>

    <!-- Crescent-and-bead finial, drawn once with its foot at the origin and
         growing upward, then placed four times at different scales. Bottom to
         top: a bulb, a neck, a small bead, a stem, the crescent, a spike.
         The crescent's second radius (9) must stay LARGER than its first (7) or
         the arc degenerates and the shape disappears; see the note in the
         space.json panel-safe token for how that failure looks. -->
    <g id="iyhmo8v0-finial" fill="#6b6244">
      <rect x="-1.7" y="-7" width="3.4" height="7"/>
      <ellipse cx="0" cy="-10" rx="4.7" ry="3.9"/>
      <rect x="-1.7" y="-15" width="3.4" height="4"/>
      <ellipse cx="0" cy="-16.9" rx="3.5" ry="2.8"/>
      <rect x="-1.6" y="-27" width="3.2" height="10"/>
      <!-- The crescent is an explicit path, not two arcs. A two-circle crescent
           always curls its horns INWARD; the original's splay outward and taper
           to points. It is also wide and shallow, which the non-uniform
           scale below produces from one drawn shape. -->
      <g transform="translate(0,-28.5) scale(0.84,0.74)">
        <path d="M -9,-6.8 C -9.4,-1 -5.6,3 0,4.6 C 5.6,3 9.4,-1 9,-6.8 L 6.2,-5 C 6.3,-1.4 3.8,0.9 0,1.9 C -3.8,0.9 -6.3,-1.4 -6.2,-5 Z"/>
      </g>
      <rect x="-1.6" y="-32.5" width="3.2" height="5.5"/>
    </g>

    <!-- A minaret comes in two halves, and they are drawn at different points
         in the stack.

         The SHAFT sits inside the roundel clip, under the platform, so the
         platform crosses in front of it the way it does in the original.

         The TOP is drawn OUTSIDE the clip, because the finial deliberately
         breaks the circle — in the original artwork the crescent stands proud
         of the mint ground against bare paper. Clipped, everything above the
         roundel's edge disappears and the finial collapses to a single bead. -->
    <!-- One dome, drawn once with its base at the origin and placed twice at
         different scales. Defining it once is what keeps the pair the same
         shape: as two hand-written paths the smaller one drifted into an egg,
         nearly as tall as it was wide, while the larger stayed round.
         Width 97, height 65. Scale it; do not redraw it. -->
    <g id="iyhmo8v0-dome">
      <path d="M 0,0 C 0,-42 18,-63 48,-65 C 78,-63 97,-42 97,0 Z" fill="#d4905e"/>
      <path d="M 48,-65 C 78,-63 97,-42 97,0 L 75,0 C 75,-38 64,-58 48,-65 Z"
            fill="#c47c5a" opacity="0.5"/>
    </g>

    <g id="iyhmo8v0-minaret-shaft">
      <rect x="-32" y="-165" width="64" height="165" fill="#c5e8dc"/>
      <rect x="20" y="-165" width="12" height="165" fill="#a0d4c0" opacity="0.6"/>
      <rect x="-9" y="-125" width="18" height="26" rx="2.5" fill="#4b4539"/>
      <rect x="-9" y="-37" width="18" height="25" rx="2.5" fill="#4b4539"/>
    </g>

    <!-- The cap is narrower than the shaft, which is what gives the original
         its tapered, drawn-by-hand silhouette. The ribs are what make it read
         as a fluted onion dome rather than a plain bell. -->
    <g id="iyhmo8v0-minaret-top">
      <!-- A half ellipse: rx 19, ry 33. Sampling the original's cap width at
           six heights matches an ellipse to within half a unit, where the bezier
           this replaces rose too steeply and read as a bullet rather than a
           dome. -->
      <path d="M -19,-162 A 19,33 0 0 1 19,-162 Z" fill="#f7f3ee"/>
      <!-- Two ribs, not three. The original has no centre rib: its middle
           panel is a single wide face. Each rib is the cap's own ellipse at
           0.57 of the width, so they read as meridians on the dome rather than
           as lines drawn over it. -->
      <g fill="none" stroke="#ede7dc" stroke-width="1.5" stroke-linecap="round">
        <path d="M 0,-195 A 10.8,33 0 0 0 -10.8,-162"/>
        <path d="M 0,-195 A 10.8,33 0 0 1 10.8,-162"/>
      </g>
      <use href="#iyhmo8v0-finial" transform="translate(0,-197)"/>
    </g>
  </defs>

  <!-- ── Ground ──────────────────────────────────────────────────────────── -->
  <circle cx="256" cy="256" r="254" fill="#c5e8dc"/>

  <g clip-path="url(#iyhmo8v0-roundel-clip)">

    <!-- The body barely separates from the ground — in the original the two
         mints differ by one value per channel. Almost all of the tonal interest
         below the platform comes from the banding and the shading, not from
         this rectangle. Raise its opacity and the mark grows a visible box. -->
    <!-- ── Panel ─────────────────────────────────────────────────────────
         A full DISC, not a half one: its radius is the arch's inner edge, and
         the mosque body is laid over it. That is what leaves a white strip down
         each flank between the arch and the body — visible from y 174 to 338 in
         the original, and easy to miss, because the eye reads the white as the
         courtyard and stops looking once the courtyard is right.

         The usable white area for type is much smaller than this disc, since
         the minarets, domes and their finials are painted over it. That area is
         `logo.panel-safe` in brand/tokens/space.json. -->
    <circle cx="256" cy="256" r="198" fill="#ffffff"/>

    <!-- The mosque body, over the panel, leaving the flanks white. It barely
         separates from the ground — in the original the two mints differ by one
         value per channel — so almost all the tonal interest below the platform
         comes from the banding and the shading, not from this rectangle. -->
    <rect x="77" y="249" width="357" height="270" fill="#c5e8dc"/>
    <rect x="345" y="249" width="89" height="270" fill="#a0d4c0" opacity="0.22"/>
    <g fill="#f0faf5" opacity="0.45">
      <ellipse cx="196" cy="292" rx="38" ry="9"/>
      <ellipse cx="330" cy="322" rx="46" ry="10"/>
      <ellipse cx="180" cy="356" rx="52" ry="11"/>
      <ellipse cx="336" cy="392" rx="42" ry="10"/>
      <ellipse cx="212" cy="424" rx="58" ry="12"/>
    </g>


    <!-- ── Arch ──────────────────────────────────────────────────────────
         NOT a full ring. It runs from 241 degrees round through the top to 120
         degrees, leaving a 120 degree gap centred on the bottom of the roundel.
         That gap is deliberate in the original: it is where the association's
         motto is set along the curve.

         It is a filled annular sector rather than a stroked circle, because the
         two ends TAPER to a point. A stroke cannot narrow, and butt ends read
         as though the ring had simply been cut.

         Angles are clockwise from the top. Outer radius 208, inner 198, so
         the arch is 10 wide at its thickest, tapering over 6 degrees at each
         end.

         The INNER edge runs the full length at exactly r 198, and the taper is
         cut entirely from the outer edge, ending in a point on the inner edge.
         This is load-bearing, not styling: r 198 is also the panel disc's
         radius, so the arch's inner edge and the white disc's edge are the same
         curve and cannot separate. Any tip that pulls the inner edge off that
         radius opens a sliver of bare ground between the arch and the white —
         small, but it reads as a stray green wedge exactly where the eye
         follows the arch down. -->
    <path d="M 82.83,351.99 L 67.49,343.9 A 208,208 0 1 1 442.95,347.18 L 427.47,355 A 198,198 0 1 0 82.83,351.99 Z" fill="#b0643e"/>

    <!-- ── Minaret shafts ────────────────────────────────────────────────
         BEFORE the domes. In the original the domes pass in front of the
         shafts: at y 230 the large dome starts at x 123 and covers the shaft
         out to its edge at 143. Drawn the other way round, that covered strip
         shows as a slab of mint between the aperture and the dome — visible,
         wrong, and easy to mistake for stray geometry.

         The caps and finials come later, outside the clip. -->
    <use href="#iyhmo8v0-minaret-shaft" transform="translate(110,257)"/>
    <use href="#iyhmo8v0-minaret-shaft" transform="translate(402,257)"/>


    <!-- ── Domes ─────────────────────────────────────────────────────────
         Two, unequal and well apart, the way the village mosque actually sits.
         A symmetric pair reads as a generic icon. Drawn over the shafts, so
         each dome is whole and it is the minaret that is interrupted. -->
    <use href="#iyhmo8v0-dome" transform="translate(121,252)"/>
    <use href="#iyhmo8v0-finial" transform="translate(169,188) scale(0.92)"/>

    <!-- 0.4948 = 48/97, so the smaller dome is 48 wide and keeps the larger
         one's proportions exactly. The finial is placed separately, or it would
         scale with the dome and shrink to nothing. -->
    <use href="#iyhmo8v0-dome" transform="translate(324,252) scale(0.4948)"/>
    <use href="#iyhmo8v0-finial" transform="translate(348,221) scale(0.72)"/>

    <!-- ── Platform ──────────────────────────────────────────────────────
         The mark's optical baseline. It crosses in front of the shafts. -->
    <rect x="77" y="249" width="357" height="14" fill="#b0643e"/>
    <rect x="77" y="261" width="357" height="4" fill="#c47c5a" opacity="0.55"/>

    <!-- ── Courtyard window ──────────────────────────────────────────────
         The one asymmetric detail. It keeps the lower half from reading as
         empty and gives the eye somewhere to land. -->
    <g transform="translate(296,300)">
      <rect x="0" y="0" width="46" height="38" rx="3" fill="#ffffff"/>
      <rect x="5" y="5" width="36" height="28" rx="2" fill="#a0d4c0"/>
      <rect x="5" y="13" width="36" height="3.5" fill="#ffffff"/>
      <rect x="5" y="22" width="36" height="3.5" fill="#ffffff"/>
      <rect x="16" y="5" width="3.5" height="28" fill="#ffffff"/>
    </g>

  </g>

  <!-- ── Minaret caps and finials ─────────────────────────────────────────
       OUTSIDE the roundel clip, deliberately. The finials break the circle, as
       they do in the original mark. -->
  <use href="#iyhmo8v0-minaret-top" transform="translate(110,257)"/>
  <use href="#iyhmo8v0-minaret-top" transform="translate(402,257)"/>
</g>
    <g transform="translate(721.92 304.32)">
    <path d="M9.06,-24.31L13.52,-24.31L22.5,0L17.01,0Q16.36,-1.88 15.48,-4.95L7.07,-4.95Q6.18,-2.23 5.45,0L0.08,0L9.06,-24.31ZM11.33,-17.16Q10.48,-14.82 8.64,-9.41L13.94,-9.41Q12.29,-14.21 11.33,-17.16Z M23.88,-2L25.8,-4.92Q27.69,-3.26 30.6,-3.26Q31.56,-3.26 32.2,-3.76Q32.83,-4.26 32.83,-5.03Q32.83,-6.57 30.34,-6.99Q27.53,-7.45 26,-8.95Q24.46,-10.44 24.46,-12.71Q24.46,-14.94 26.27,-16.42Q28.07,-17.89 30.8,-17.89Q34.52,-17.89 37.32,-15.71L35.4,-12.94Q33.52,-14.21 31.07,-14.21Q29.45,-14.21 29.45,-12.79Q29.45,-11.44 31.72,-10.91Q34.87,-10.14 35.98,-9.18Q37.63,-7.8 37.63,-4.95Q37.63,-2.5 35.87,-1.02Q34.1,0.46 31.1,0.46Q26.8,0.46 23.88,-2Z M39.9,-2L41.82,-4.92Q43.7,-3.26 46.62,-3.26Q47.58,-3.26 48.21,-3.76Q48.84,-4.26 48.84,-5.03Q48.84,-6.57 46.35,-6.99Q43.55,-7.45 42.01,-8.95Q40.47,-10.44 40.47,-12.71Q40.47,-14.94 42.28,-16.42Q44.08,-17.89 46.81,-17.89Q50.53,-17.89 53.34,-15.71L51.42,-12.94Q49.54,-14.21 47.08,-14.21Q45.47,-14.21 45.47,-12.79Q45.47,-11.44 47.73,-10.91Q50.88,-10.14 51.99,-9.18Q53.64,-7.8 53.64,-4.95Q53.64,-2.5 51.88,-1.02Q50.11,0.46 47.12,0.46Q42.82,0.46 39.9,-2Z M64.63,-17.89Q68.97,-17.89 71.39,-14.86Q73.38,-12.36 73.38,-8.68Q73.38,-4.42 70.35,-1.73Q67.89,0.46 64.63,0.46Q60.86,0.46 58.29,-2.38Q55.91,-4.95 55.91,-8.68Q55.91,-12.94 58.48,-15.51Q60.86,-17.89 64.63,-17.89ZM61.25,-8.68Q61.25,-3.42 64.67,-3.42Q68.04,-3.42 68.04,-8.68Q68.04,-14.21 64.63,-14.21Q61.25,-14.21 61.25,-8.68Z M91.85,-15.24L90.24,-12.44Q88.28,-14.25 86.02,-14.25Q83.98,-14.25 82.68,-12.65Q81.37,-11.06 81.37,-8.52Q81.37,-6.18 82.64,-4.7Q83.9,-3.23 85.9,-3.23Q88.44,-3.23 90.2,-5.18L92.01,-2.34Q89.13,0.46 85.44,0.46Q80.95,0.46 78.3,-2.38Q76.03,-4.88 76.03,-8.64Q76.03,-12.86 78.95,-15.55Q81.52,-17.89 85.21,-17.89Q89.43,-17.89 91.85,-15.24Z M101.3,-17.43L101.3,0L96.04,0L96.04,-17.43L101.3,-17.43ZM98.53,-18.7Q97.15,-18.7 96.27,-19.62Q95.39,-20.54 95.39,-22Q95.39,-23.35 96.33,-24.33Q97.27,-25.31 98.53,-25.31Q99.96,-25.31 100.92,-24.35Q101.88,-23.39 101.88,-22Q101.88,-20.54 100.95,-19.62Q100.03,-18.7 98.53,-18.7Z M120.88,0L116.66,0L116.28,-1.61Q116.2,-1.57 116.04,-1.42Q113.82,0.46 111.24,0.46Q105.45,0.46 105.45,-5.22Q105.45,-8.03 107.83,-9.56Q110.36,-11.21 115.28,-11.21L115.78,-11.21L115.78,-11.25Q115.78,-12.79 115.16,-13.32Q114.55,-13.86 112.82,-13.86Q110.28,-13.86 108.21,-12.25Q107.44,-13.63 106.83,-14.94Q109.21,-16.7 110.8,-17.3Q112.4,-17.89 114.74,-17.89Q120.88,-17.89 120.88,-10.14L120.88,0ZM115.58,-8.06L115.32,-8.06Q113.28,-8.06 111.97,-7.33Q110.67,-6.6 110.67,-5.45Q110.67,-3.26 112.47,-3.26Q113.7,-3.26 114.59,-3.99Q115.47,-4.72 115.58,-5.84L115.58,-8.06Z M136.05,-4.3L137.78,-1.65Q134.86,0.65 131.37,0.65Q126.72,0.65 126.72,-4.49L126.72,-13.25L124.34,-13.25L124.34,-17.43L126.76,-17.43L126.76,-20.43Q129.02,-21.66 132.02,-23.23L132.02,-17.43L136.93,-17.43L136.93,-13.25L131.98,-13.25L131.98,-4.99Q131.98,-3.92 132.21,-3.57Q132.44,-3.23 133.09,-3.23Q134.17,-3.23 136.05,-4.3Z M147.07,-17.43L147.07,0L141.81,0L141.81,-17.43L147.07,-17.43ZM144.31,-18.7Q142.92,-18.7 142.04,-19.62Q141.16,-20.54 141.16,-22Q141.16,-23.35 142.1,-24.33Q143.04,-25.31 144.31,-25.31Q145.73,-25.31 146.69,-24.35Q147.65,-23.39 147.65,-22Q147.65,-20.54 146.73,-19.62Q145.8,-18.7 144.31,-18.7Z M159.94,-17.89Q164.28,-17.89 166.69,-14.86Q168.69,-12.36 168.69,-8.68Q168.69,-4.42 165.66,-1.73Q163.2,0.46 159.94,0.46Q156.17,0.46 153.6,-2.38Q151.22,-4.95 151.22,-8.68Q151.22,-12.94 153.79,-15.51Q156.17,-17.89 159.94,-17.89ZM156.56,-8.68Q156.56,-3.42 159.97,-3.42Q163.35,-3.42 163.35,-8.68Q163.35,-14.21 159.94,-14.21Q156.56,-14.21 156.56,-8.68Z M177.52,-15.74Q178.25,-16.63 179.81,-17.26Q181.36,-17.89 182.71,-17.89Q186.05,-17.89 187.49,-16.13Q188.93,-14.36 188.93,-10.21L188.93,0L183.67,0L183.67,-10.02Q183.67,-13.52 180.56,-13.52Q179.75,-13.52 178.89,-13.21Q178.02,-12.9 177.72,-12.52L177.72,0L172.49,0L172.49,-17.43L176.95,-17.43L177.52,-15.74Z M214.58,-16.55L214.58,-21.81L219.8,-24.69L219.8,0L215.62,0L214.85,-1.84Q214.27,-0.84 212.91,-0.19Q211.55,0.46 210.12,0.46Q205.94,0.46 203.79,-2.27Q202.02,-4.49 202.02,-8.03Q202.02,-13.17 204.98,-15.86Q207.17,-17.89 210.2,-17.89Q212.81,-17.89 214.58,-16.55ZM214.58,-11.29Q214.31,-12.6 213.43,-13.4Q212.54,-14.21 211.35,-14.21Q209.47,-14.21 208.42,-12.75Q207.36,-11.29 207.36,-8.76Q207.36,-3.26 210.74,-3.26Q212.08,-3.26 213.27,-4.4Q214.46,-5.53 214.58,-6.95L214.58,-11.29Z M241.23,-7.03L229.32,-7.03Q229.44,-5.45 230.67,-4.36Q231.9,-3.26 233.47,-3.26Q235.97,-3.26 238.77,-4.84L240.08,-2.07Q238.85,-0.96 236.85,-0.25Q234.85,0.46 233.01,0.46Q228.52,0.46 226.02,-2.04Q223.6,-4.42 223.6,-8.64Q223.6,-12.75 226.33,-15.44Q228.83,-17.89 232.63,-17.89Q236.81,-17.89 239.16,-15.17Q241.23,-12.79 241.23,-8.95L241.23,-7.03ZM229.02,-10.87L236.01,-10.87Q235.81,-14.25 232.55,-14.25Q229.4,-14.25 229.02,-10.87Z M243.88,-2L245.8,-4.92Q247.68,-3.26 250.6,-3.26Q251.56,-3.26 252.19,-3.76Q252.83,-4.26 252.83,-5.03Q252.83,-6.57 250.33,-6.99Q247.53,-7.45 245.99,-8.95Q244.45,-10.44 244.45,-12.71Q244.45,-14.94 246.26,-16.42Q248.06,-17.89 250.79,-17.89Q254.52,-17.89 257.32,-15.71L255.4,-12.94Q253.52,-14.21 251.06,-14.21Q249.45,-14.21 249.45,-12.79Q249.45,-11.44 251.71,-10.91Q254.86,-10.14 255.97,-9.18Q257.63,-7.8 257.63,-4.95Q257.63,-2.5 255.86,-1.02Q254.09,0.46 251.1,0.46Q246.8,0.46 243.88,-2Z M275.9,-24.31L275.9,0.88Q275.9,6.45 270.49,6.45Q267.26,6.45 264.65,4.42L266.46,1.42Q268.03,2.46 269.45,2.46Q270.57,2.46 270.57,0.61L270.57,-24.31L275.9,-24.31Z M297.41,-7.03L285.5,-7.03Q285.62,-5.45 286.85,-4.36Q288.08,-3.26 289.65,-3.26Q292.15,-3.26 294.95,-4.84L296.26,-2.07Q295.03,-0.96 293.03,-0.25Q291.03,0.46 289.19,0.46Q284.7,0.46 282.2,-2.04Q279.78,-4.42 279.78,-8.64Q279.78,-12.75 282.51,-15.44Q285,-17.89 288.81,-17.89Q292.99,-17.89 295.33,-15.17Q297.41,-12.79 297.41,-8.95L297.41,-7.03ZM285.2,-10.87L292.19,-10.87Q291.99,-14.25 288.73,-14.25Q285.58,-14.25 285.2,-10.87Z M312.54,-2Q310.73,0.46 307.32,0.46Q303.94,0.46 302.57,-1.21Q301.21,-2.88 301.21,-6.99L301.21,-17.43L306.36,-17.43L306.36,-8.41Q306.36,-5.8 306.97,-4.82Q307.58,-3.84 309.24,-3.84Q309.85,-3.84 310.69,-4.17Q311.54,-4.49 311.65,-4.84L311.65,-17.43L316.88,-17.43L316.88,0L313,0L312.54,-2Z M326.86,-15.74Q327.59,-16.63 329.15,-17.26Q330.7,-17.89 332.04,-17.89Q335.39,-17.89 336.83,-16.13Q338.27,-14.36 338.27,-10.21L338.27,0L333,0L333,-10.02Q333,-13.52 329.89,-13.52Q329.09,-13.52 328.22,-13.21Q327.36,-12.9 327.05,-12.52L327.05,0L321.83,0L321.83,-17.43L326.28,-17.43L326.86,-15.74Z M359.5,-7.03L347.6,-7.03Q347.71,-5.45 348.94,-4.36Q350.17,-3.26 351.74,-3.26Q354.24,-3.26 357.04,-4.84L358.35,-2.07Q357.12,-0.96 355.12,-0.25Q353.13,0.46 351.28,0.46Q346.79,0.46 344.29,-2.04Q341.88,-4.42 341.88,-8.64Q341.88,-12.75 344.6,-15.44Q347.1,-17.89 350.9,-17.89Q355.08,-17.89 357.43,-15.17Q359.5,-12.79 359.5,-8.95L359.5,-7.03ZM347.29,-10.87L354.28,-10.87Q354.09,-14.25 350.82,-14.25Q347.67,-14.25 347.29,-10.87Z M362.15,-2L364.07,-4.92Q365.95,-3.26 368.87,-3.26Q369.83,-3.26 370.46,-3.76Q371.1,-4.26 371.1,-5.03Q371.1,-6.57 368.6,-6.99Q365.8,-7.45 364.26,-8.95Q362.73,-10.44 362.73,-12.71Q362.73,-14.94 364.53,-16.42Q366.34,-17.89 369.06,-17.89Q372.79,-17.89 375.59,-15.71L373.67,-12.94Q371.79,-14.21 369.33,-14.21Q367.72,-14.21 367.72,-12.79Q367.72,-11.44 369.98,-10.91Q373.13,-10.14 374.25,-9.18Q375.9,-7.8 375.9,-4.95Q375.9,-2.5 374.13,-1.02Q372.36,0.46 369.37,0.46Q365.07,0.46 362.15,-2Z M400.59,-16.55L400.59,-21.81L405.81,-24.69L405.81,0L401.63,0L400.86,-1.84Q400.28,-0.84 398.92,-0.19Q397.56,0.46 396.13,0.46Q391.95,0.46 389.8,-2.27Q388.03,-4.49 388.03,-8.03Q388.03,-13.17 390.99,-15.86Q393.18,-17.89 396.21,-17.89Q398.82,-17.89 400.59,-16.55ZM400.59,-11.29Q400.32,-12.6 399.44,-13.4Q398.55,-14.21 397.36,-14.21Q395.48,-14.21 394.43,-12.75Q393.37,-11.29 393.37,-8.76Q393.37,-3.26 396.75,-3.26Q398.09,-3.26 399.28,-4.4Q400.47,-5.53 400.59,-6.95L400.59,-11.29Z M427.24,-7.03L415.33,-7.03Q415.45,-5.45 416.68,-4.36Q417.91,-3.26 419.48,-3.26Q421.98,-3.26 424.78,-4.84L426.09,-2.07Q424.86,-0.96 422.86,-0.25Q420.86,0.46 419.02,0.46Q414.53,0.46 412.03,-2.04Q409.61,-4.42 409.61,-8.64Q409.61,-12.75 412.34,-15.44Q414.84,-17.89 418.64,-17.89Q422.82,-17.89 425.16,-15.17Q427.24,-12.79 427.24,-8.95L427.24,-7.03ZM415.03,-10.87L422.02,-10.87Q421.82,-14.25 418.56,-14.25Q415.41,-14.25 415.03,-10.87Z M445.44,-20.01L438.49,-20.01L438.49,-24.31L458.38,-24.31L458.38,-20.01L450.89,-20.01L450.89,0L445.44,0L445.44,-20.01Z M473.86,0L469.63,0L469.25,-1.61Q469.17,-1.57 469.02,-1.42Q466.79,0.46 464.22,0.46Q458.42,0.46 458.42,-5.22Q458.42,-8.03 460.8,-9.56Q463.33,-11.21 468.25,-11.21L468.75,-11.21L468.75,-11.25Q468.75,-12.79 468.13,-13.32Q467.52,-13.86 465.79,-13.86Q463.26,-13.86 461.18,-12.25Q460.42,-13.63 459.8,-14.94Q462.18,-16.7 463.78,-17.3Q465.37,-17.89 467.71,-17.89Q473.86,-17.89 473.86,-10.14L473.86,0ZM468.56,-8.06L468.29,-8.06Q466.25,-8.06 464.95,-7.33Q463.64,-6.6 463.64,-5.45Q463.64,-3.26 465.45,-3.26Q466.68,-3.26 467.56,-3.99Q468.44,-4.72 468.56,-5.84L468.56,-8.06Z M490.29,-2.19Q488.56,0.46 485.45,0.46Q481.61,0.46 479.5,-2.27Q477.73,-4.53 477.73,-8.03Q477.73,-13.13 480.69,-15.86Q482.92,-17.89 485.91,-17.89Q488.41,-17.89 490.14,-16.67Q491.33,-15.78 491.17,-15.55L491.56,-17.43L495.55,-17.43L495.55,-1.84Q495.55,2.5 493.36,4.92Q491.17,7.33 487.1,7.33Q482.76,7.33 479.81,4.49L481.08,1.88Q483.42,3.38 486.37,3.38Q490.29,3.38 490.29,-2.15L490.29,-2.19ZM490.29,-7.53L490.29,-11.29Q490.18,-12.48 489.22,-13.34Q488.26,-14.21 487.07,-14.21Q485.22,-14.21 484.17,-12.75Q483.11,-11.29 483.11,-8.76Q483.11,-3.26 486.57,-3.26Q488.1,-3.26 489.2,-4.45Q490.29,-5.64 490.29,-7.33Q490.29,-7.41 490.29,-7.53Z M511.87,-2Q510.07,0.46 506.65,0.46Q503.27,0.46 501.91,-1.21Q500.54,-2.88 500.54,-6.99L500.54,-17.43L505.69,-17.43L505.69,-8.41Q505.69,-5.8 506.3,-4.82Q506.92,-3.84 508.57,-3.84Q509.18,-3.84 510.03,-4.17Q510.87,-4.49 510.99,-4.84L510.99,-17.43L516.21,-17.43L516.21,0L512.33,0L511.87,-2Z M526.89,-17.43L526.89,0L521.63,0L521.63,-17.43L526.89,-17.43ZM524.12,-18.7Q522.74,-18.7 521.86,-19.62Q520.97,-20.54 520.97,-22Q520.97,-23.35 521.91,-24.33Q522.85,-25.31 524.12,-25.31Q525.54,-25.31 526.5,-24.35Q527.46,-23.39 527.46,-22Q527.46,-20.54 526.54,-19.62Q525.62,-18.7 524.12,-18.7Z M537.41,-24.77L537.41,0L532.19,0L532.19,-22.04Q533.72,-22.77 536.76,-24.42L537.14,-24.61L537.41,-24.77Z M556.65,0L552.42,0L552.04,-1.61Q551.96,-1.57 551.81,-1.42Q549.58,0.46 547.01,0.46Q541.21,0.46 541.21,-5.22Q541.21,-8.03 543.59,-9.56Q546.12,-11.21 551.04,-11.21L551.54,-11.21L551.54,-11.25Q551.54,-12.79 550.92,-13.32Q550.31,-13.86 548.58,-13.86Q546.05,-13.86 543.97,-12.25Q543.21,-13.63 542.59,-14.94Q544.97,-16.7 546.57,-17.3Q548.16,-17.89 550.5,-17.89Q556.65,-17.89 556.65,-10.14L556.65,0ZM551.35,-8.06L551.08,-8.06Q549.04,-8.06 547.74,-7.33Q546.43,-6.6 546.43,-5.45Q546.43,-3.26 548.24,-3.26Q549.47,-3.26 550.35,-3.99Q551.23,-4.72 551.35,-5.84L551.35,-8.06Z M566.71,-24.77L566.71,0L561.48,0L561.48,-22.04Q563.02,-22.77 566.05,-24.42L566.44,-24.61L566.71,-24.77Z M588.13,-7.03L576.23,-7.03Q576.35,-5.45 577.57,-4.36Q578.8,-3.26 580.38,-3.26Q582.87,-3.26 585.68,-4.84L586.98,-2.07Q585.75,-0.96 583.76,-0.25Q581.76,0.46 579.92,0.46Q575.42,0.46 572.93,-2.04Q570.51,-4.42 570.51,-8.64Q570.51,-12.75 573.24,-15.44Q575.73,-17.89 579.53,-17.89Q583.72,-17.89 586.06,-15.17Q588.13,-12.79 588.13,-8.95L588.13,-7.03ZM575.92,-10.87L582.91,-10.87Q582.72,-14.25 579.46,-14.25Q576.31,-14.25 575.92,-10.87Z M602.27,-4.3L603.99,-1.65Q601.08,0.65 597.58,0.65Q592.93,0.65 592.93,-4.49L592.93,-13.25L590.55,-13.25L590.55,-17.43L592.97,-17.43L592.97,-20.43Q595.24,-21.66 598.23,-23.23L598.23,-17.43L603.15,-17.43L603.15,-13.25L598.2,-13.25L598.2,-4.99Q598.2,-3.92 598.43,-3.57Q598.66,-3.23 599.31,-3.23Q600.38,-3.23 602.27,-4.3Z M617.89,-4.3L619.62,-1.65Q616.7,0.65 613.21,0.65Q608.56,0.65 608.56,-4.49L608.56,-13.25L606.18,-13.25L606.18,-17.43L608.6,-17.43L608.6,-20.43Q610.87,-21.66 613.86,-23.23L613.86,-17.43L618.78,-17.43L618.78,-13.25L613.82,-13.25L613.82,-4.99Q613.82,-3.92 614.05,-3.57Q614.28,-3.23 614.94,-3.23Q616.01,-3.23 617.89,-4.3Z" fill="#b0643e" transform="translate(0 30.72)"/>
    <path d="M3.55,-6.34L9.6,-14.69Q14.88,-11.04 23.71,-11.04Q33.12,-11.04 33.12,-18.24Q33.12,-22.56 22.27,-26.5Q5.76,-32.45 5.76,-45.22Q5.76,-52.99 11.52,-57.6Q16.9,-61.92 26.02,-61.92Q36.29,-61.92 45.41,-55.58Q43.68,-52.99 39.65,-47.23Q31.58,-50.59 25.82,-50.59Q18.53,-50.59 18.53,-45.12Q18.53,-42.82 20.5,-41.23Q22.46,-39.65 28.22,-37.34Q38.21,-33.5 42.67,-28.8Q47.14,-24.1 47.14,-17.66Q47.14,-8.06 40.03,-2.98Q34.27,1.15 25.54,1.15Q15.36,1.15 3.55,-6.34Z M98.78,-17.57L69.02,-17.57Q69.31,-13.63 72.38,-10.9Q75.46,-8.16 79.39,-8.16Q85.63,-8.16 92.64,-12.1L95.9,-5.18Q92.83,-2.4 87.84,-0.62Q82.85,1.15 78.24,1.15Q67.01,1.15 60.77,-5.09Q54.72,-11.04 54.72,-21.6Q54.72,-31.87 61.54,-38.59Q67.78,-44.74 77.28,-44.74Q87.74,-44.74 93.6,-37.92Q98.78,-31.97 98.78,-22.37L98.78,-17.57ZM68.26,-27.17L85.73,-27.17Q85.25,-35.62 77.09,-35.62Q69.22,-35.62 68.26,-27.17Z M144.96,-38.11L140.93,-31.1Q136.03,-35.62 130.37,-35.62Q125.28,-35.62 122.02,-31.63Q118.75,-27.65 118.75,-21.31Q118.75,-15.46 121.92,-11.76Q125.09,-8.06 130.08,-8.06Q136.42,-8.06 140.83,-12.96L145.34,-5.86Q138.14,1.15 128.93,1.15Q117.7,1.15 111.07,-5.95Q105.41,-12.19 105.41,-21.6Q105.41,-32.16 112.7,-38.88Q119.14,-44.74 128.35,-44.74Q138.91,-44.74 144.96,-38.11Z M165.31,-43.58L166.56,-40.03Q167.42,-41.86 170.11,-43.3Q172.8,-44.74 175.49,-44.74Q184.42,-44.74 188.74,-36Q187.1,-35.14 183.26,-33.12Q179.62,-31.1 177.79,-30.14Q174.62,-33.89 171.07,-33.89Q168.29,-33.89 167.14,-30.91L167.14,0L154.27,0L154.27,-43.58L165.31,-43.58Z M236.54,-17.57L206.78,-17.57Q207.07,-13.63 210.14,-10.9Q213.22,-8.16 217.15,-8.16Q223.39,-8.16 230.4,-12.1L233.66,-5.18Q230.59,-2.4 225.6,-0.62Q220.61,1.15 216,1.15Q204.77,1.15 198.53,-5.09Q192.48,-11.04 192.48,-21.6Q192.48,-31.87 199.3,-38.59Q205.54,-44.74 215.04,-44.74Q225.5,-44.74 231.36,-37.92Q236.54,-31.97 236.54,-22.37L236.54,-17.57ZM206.02,-27.17L223.49,-27.17Q223.01,-35.62 214.85,-35.62Q206.98,-35.62 206.02,-27.17ZM229.34,-62.88L218.5,-48.29L209.47,-48.29L216.67,-62.88L229.34,-62.88Z M273.5,-10.75L277.82,-4.13Q270.53,1.63 261.79,1.63Q250.18,1.63 250.18,-11.23L250.18,-33.12L244.22,-33.12L244.22,-43.58L250.27,-43.58L250.27,-51.07Q255.94,-54.14 263.42,-58.08L263.42,-43.58L275.71,-43.58L275.71,-33.12L263.33,-33.12L263.33,-12.48Q263.33,-9.79 263.9,-8.93Q264.48,-8.06 266.11,-8.06Q268.8,-8.06 273.5,-10.75Z M322.46,0L311.9,0L310.94,-4.03Q310.75,-3.94 310.37,-3.55Q304.8,1.15 298.37,1.15Q283.87,1.15 283.87,-13.06Q283.87,-20.06 289.82,-23.9Q296.16,-28.03 308.45,-28.03L309.7,-28.03L309.7,-28.13Q309.7,-31.97 308.16,-33.31Q306.62,-34.66 302.3,-34.66Q295.97,-34.66 290.78,-30.62Q288.86,-34.08 287.33,-37.34Q293.28,-41.76 297.26,-43.25Q301.25,-44.74 307.1,-44.74Q322.46,-44.74 322.46,-25.34L322.46,0ZM309.22,-20.16L308.54,-20.16Q303.46,-20.16 300.19,-18.34Q296.93,-16.51 296.93,-13.63Q296.93,-8.16 301.44,-8.16Q304.51,-8.16 306.72,-9.98Q308.93,-11.81 309.22,-14.59L309.22,-20.16Z M345.6,-43.58L346.85,-40.03Q347.71,-41.86 350.4,-43.3Q353.09,-44.74 355.78,-44.74Q364.7,-44.74 369.02,-36Q367.39,-35.14 363.55,-33.12Q359.9,-31.1 358.08,-30.14Q354.91,-33.89 351.36,-33.89Q348.58,-33.89 347.42,-30.91L347.42,0L334.56,0L334.56,-43.58L345.6,-43.58Z M388.99,-43.58L388.99,0L375.84,0L375.84,-43.58L388.99,-43.58ZM382.08,-46.75Q378.62,-46.75 376.42,-49.06Q374.21,-51.36 374.21,-55.01Q374.21,-58.37 376.56,-60.82Q378.91,-63.26 382.08,-63.26Q385.63,-63.26 388.03,-60.86Q390.43,-58.46 390.43,-55.01Q390.43,-51.36 388.13,-49.06Q385.82,-46.75 382.08,-46.75Z M437.95,0L427.39,0L426.43,-4.03Q426.24,-3.94 425.86,-3.55Q420.29,1.15 413.86,1.15Q399.36,1.15 399.36,-13.06Q399.36,-20.06 405.31,-23.9Q411.65,-28.03 423.94,-28.03L425.18,-28.03L425.18,-28.13Q425.18,-31.97 423.65,-33.31Q422.11,-34.66 417.79,-34.66Q411.46,-34.66 406.27,-30.62Q404.35,-34.08 402.82,-37.34Q408.77,-41.76 412.75,-43.25Q416.74,-44.74 422.59,-44.74Q437.95,-44.74 437.95,-25.34L437.95,0ZM424.7,-20.16L424.03,-20.16Q418.94,-20.16 415.68,-18.34Q412.42,-16.51 412.42,-13.63Q412.42,-8.16 416.93,-8.16Q420,-8.16 422.21,-9.98Q424.42,-11.81 424.7,-14.59L424.7,-20.16Z M475.87,-10.75L480.19,-4.13Q472.9,1.63 464.16,1.63Q452.54,1.63 452.54,-11.23L452.54,-33.12L446.59,-33.12L446.59,-43.58L452.64,-43.58L452.64,-51.07Q458.3,-54.14 465.79,-58.08L465.79,-43.58L478.08,-43.58L478.08,-33.12L465.7,-33.12L465.7,-12.48Q465.7,-9.79 466.27,-8.93Q466.85,-8.06 468.48,-8.06Q471.17,-8.06 475.87,-10.75Z M541.82,-5.47Q537.5,1.15 529.73,1.15Q520.13,1.15 514.85,-5.66Q510.43,-11.33 510.43,-20.06Q510.43,-32.83 517.82,-39.65Q523.39,-44.74 530.88,-44.74Q537.12,-44.74 541.44,-41.66Q544.42,-39.46 544.03,-38.88L544.99,-43.58L554.98,-43.58L554.98,-4.61Q554.98,6.24 549.5,12.29Q544.03,18.34 533.86,18.34Q523.01,18.34 515.62,11.23L518.78,4.7Q524.64,8.45 532.03,8.45Q541.82,8.45 541.82,-5.38L541.82,-5.47ZM541.82,-18.82L541.82,-28.22Q541.54,-31.2 539.14,-33.36Q536.74,-35.52 533.76,-35.52Q529.15,-35.52 526.51,-31.87Q523.87,-28.22 523.87,-21.89Q523.87,-8.16 532.51,-8.16Q536.35,-8.16 539.09,-11.14Q541.82,-14.11 541.82,-18.34Q541.82,-18.53 541.82,-18.82Z M608.64,-17.57L578.88,-17.57Q579.17,-13.63 582.24,-10.9Q585.31,-8.16 589.25,-8.16Q595.49,-8.16 602.5,-12.1L605.76,-5.18Q602.69,-2.4 597.7,-0.62Q592.7,1.15 588.1,1.15Q576.86,1.15 570.62,-5.09Q564.58,-11.04 564.58,-21.6Q564.58,-31.87 571.39,-38.59Q577.63,-44.74 587.14,-44.74Q597.6,-44.74 603.46,-37.92Q608.64,-31.97 608.64,-22.37L608.64,-17.57ZM578.11,-27.17L595.58,-27.17Q595.1,-35.62 586.94,-35.62Q579.07,-35.62 578.11,-27.17ZM601.44,-62.88L590.59,-48.29L581.57,-48.29L588.77,-62.88L601.44,-62.88Z M632.35,-39.36Q634.18,-41.57 638.06,-43.15Q641.95,-44.74 645.31,-44.74Q653.66,-44.74 657.26,-40.32Q660.86,-35.9 660.86,-25.54L660.86,0L647.71,0L647.71,-25.06Q647.71,-33.79 639.94,-33.79Q637.92,-33.79 635.76,-33.02Q633.6,-32.26 632.83,-31.3L632.83,0L619.78,0L619.78,-43.58L630.91,-43.58L632.35,-39.36Z M713.95,-17.57L684.19,-17.57Q684.48,-13.63 687.55,-10.9Q690.62,-8.16 694.56,-8.16Q700.8,-8.16 707.81,-12.1L711.07,-5.18Q708,-2.4 703.01,-0.62Q698.02,1.15 693.41,1.15Q682.18,1.15 675.94,-5.09Q669.89,-11.04 669.89,-21.6Q669.89,-31.87 676.7,-38.59Q682.94,-44.74 692.45,-44.74Q702.91,-44.74 708.77,-37.92Q713.95,-31.97 713.95,-22.37L713.95,-17.57ZM683.42,-27.17L700.9,-27.17Q700.42,-35.62 692.26,-35.62Q684.38,-35.62 683.42,-27.17ZM706.75,-62.88L695.9,-48.29L686.88,-48.29L694.08,-62.88L706.75,-62.88Z M736.13,-43.58L737.38,-40.03Q738.24,-41.86 740.93,-43.3Q743.62,-44.74 746.3,-44.74Q755.23,-44.74 759.55,-36Q757.92,-35.14 754.08,-33.12Q750.43,-31.1 748.61,-30.14Q745.44,-33.89 741.89,-33.89Q739.1,-33.89 737.95,-30.91L737.95,0L725.09,0L725.09,-43.58L736.13,-43.58Z M799.97,0L789.41,0L788.45,-4.03Q788.26,-3.94 787.87,-3.55Q782.3,1.15 775.87,1.15Q761.38,1.15 761.38,-13.06Q761.38,-20.06 767.33,-23.9Q773.66,-28.03 785.95,-28.03L787.2,-28.03L787.2,-28.13Q787.2,-31.97 785.66,-33.31Q784.13,-34.66 779.81,-34.66Q773.47,-34.66 768.29,-30.62Q766.37,-34.08 764.83,-37.34Q770.78,-41.76 774.77,-43.25Q778.75,-44.74 784.61,-44.74Q799.97,-44.74 799.97,-25.34L799.97,0ZM786.72,-20.16L786.05,-20.16Q780.96,-20.16 777.7,-18.34Q774.43,-16.51 774.43,-13.63Q774.43,-8.16 778.94,-8.16Q782.02,-8.16 784.22,-9.98Q786.43,-11.81 786.72,-14.59L786.72,-20.16Z M825.12,-61.92L825.12,0L812.06,0L812.06,-55.1Q815.9,-56.93 823.49,-61.06L824.45,-61.54L825.12,-61.92Z" fill="#265c49" transform="translate(0 140.16)"/>
    </g>
</svg>
