<svg xmlns="http://www.w3.org/2000/svg" xmlns:xlink="http://www.w3.org/1999/xlink" viewBox="0 0 512 512" width="512" height="512"><title>Ash-Shanaqita — الشناقطة</title>
  
    <defs><clipPath id="clip-shanaqita"><path d="M 96,472 V 208 A 160,160 0 0 1 416,208 V 472 Z"></path></clipPath></defs>
    <path fill="#2b1a12" d="M 96,472 V 208 A 160,160 0 0 1 416,208 V 472 Z"></path>
    <g clip-path="url(#clip-shanaqita)">
      <rect x="60" y="424" width="392" height="60" fill="#c1743a"></rect>
    </g>
    <path fill="none" stroke="#c1743a" stroke-width="14" stroke-linejoin="round" d="M 96,472 V 208 A 160,160 0 0 1 416,208 V 472 Z"></path>
    <path fill="none" stroke="#c1743a" stroke-width="3" stroke-linejoin="round" transform="translate(256,256) scale(0.9) translate(-256,-256)" d="M 96,472 V 208 A 160,160 0 0 1 416,208 V 472 Z"></path>
    <circle cx="256" cy="78" r="8" fill="#f2ece0"></circle>
    <path fill="#c1743a" d="M 240,120 L 256,88 L 272,120 Z"></path>
    <rect x="220" y="120" width="72" height="16" fill="#c1743a"></rect>
    <rect x="234" y="136" width="44" height="146" fill="#c1743a"></rect>
    <rect x="216" y="282" width="80" height="20" fill="#c1743a"></rect>
    <rect x="248" y="164" width="16" height="30" fill="#f2ece0"></rect>
    <rect x="248" y="216" width="16" height="30" fill="#f2ece0"></rect>
    <path fill="#f2ece0" d="M 256,314 L 142,292 L 142,330 L 256,346 Z"></path>
    <path fill="#f2ece0" d="M 256,314 L 370,292 L 370,330 L 256,346 Z"></path>
    <path fill="none" stroke="#c1743a" stroke-width="7" d="M 256,312 L 256,348"></path>
    <g transform="translate(256,382) scale(0.400)">
      <circle r="100" fill="#f2ece0"></circle>
      <g stroke="#2b1a12" stroke-width="15" stroke-linecap="round" fill="none">
      <path d="M 0,-34 L 0,-100"></path>
      <path d="M 32.34,-10.51 L 95.1,-30.9"></path>
      <path d="M 19.99,27.51 L 58.8,80.9"></path>
      <path d="M -19.99,27.51 L -58.8,80.9"></path>
      <path d="M -32.34,-10.51 L -95.1,-30.9"></path>
      </g>
      <path fill="#2b1a12" d="M 0,-34 L 32.34,-10.51 L 19.99,27.51 L -19.99,27.51 L -32.34,-10.51 Z"></path>
      <circle r="99" fill="none" stroke="#2b1a12" stroke-width="13"></circle>
    </g>
    <path fill="#2b1a12" transform="translate(184.70,466)" d="M4.16,-22.48Q3.2,-22.48 2.52,-23.16Q1.84,-23.84 1.84,-24.8Q1.84,-25.76 2.52,-26.44Q3.2,-27.12 4.16,-27.12Q5.12,-27.12 5.8,-26.44Q6.48,-25.76 6.48,-24.8Q6.48,-23.84 5.8,-23.16Q5.12,-22.48 4.16,-22.48ZM4.16,-15.68Q3.2,-15.68 2.52,-16.36Q1.84,-17.04 1.84,-18Q1.84,-18.96 2.52,-19.64Q3.2,-20.32 4.16,-20.32Q5.12,-20.32 5.8,-19.64Q6.48,-18.96 6.48,-18Q6.48,-17.04 5.8,-16.36Q5.12,-15.68 4.16,-15.68Z M6.92,0L9.52,-5.6L17.4,-5.6L17.4,0L6.92,0ZM12.84,0L12.84,-8L14.6,-8L14.6,0L12.84,0ZM9,-14.6L9,-18.52L14.6,-20.8L14.6,-17.04Q14.28,-16.4 13.36,-15.84Q12.44,-15.28 11.28,-14.94Q10.12,-14.6 9,-14.6ZM9,-19.72L9,-30.76L14.6,-32L14.6,-22L9,-19.72ZM14.6,-6.8L7.84,-13.6Q8.36,-13.6 9.32,-13.66Q10.28,-13.72 11.34,-13.94Q12.4,-14.16 13.3,-14.62Q14.2,-15.08 14.6,-15.84L14.6,-6.8ZM7.85,0Q5.98,0 4.43,-0.92Q2.88,-1.84 1.94,-3.39Q1,-4.95 1,-6.79Q1,-8.68 1.94,-10.23Q2.88,-11.78 4.44,-12.69Q6,-13.6 7.86,-13.6Q9.72,-13.6 11.24,-12.68Q12.76,-11.76 13.68,-10.23Q14.6,-8.69 14.6,-6.8Q14.6,-4.92 13.68,-3.38Q12.76,-1.84 11.24,-0.92Q9.72,0 7.85,0ZM7.84,-5.6Q8.36,-5.6 8.68,-5.95Q9,-6.3 9,-6.8Q9,-7.3 8.68,-7.65Q8.36,-8 7.84,-8Q7.32,-8 6.96,-7.65Q6.6,-7.3 6.6,-6.8Q6.6,-6.3 6.96,-5.95Q7.32,-5.6 7.84,-5.6Z M51,0L51,-5.6L58,-5.6L58,0L51,0ZM14.6,0L14.6,-5.6L21.6,-5.6L21.6,0L14.6,0ZM21.2,-2L21.2,-30.76L26.8,-32L26.8,-2L21.2,-2ZM14.8,0L18.16,-5.6L27.6,-5.6L27.6,0L14.8,0ZM23,0L23,-5.6L47.6,-5.6Q47.64,-6.68 46.94,-7.34Q46.24,-8 44,-8L23,-8L23,-13.6L44,-13.6Q46.96,-13.6 48.76,-12.76Q50.56,-11.92 51.5,-10.52Q52.44,-9.12 52.8,-7.44Q53.16,-5.76 53.18,-4.06Q53.2,-2.36 53.2,-0.92Q53.2,-0.44 52.8,-0.24Q52.4,-0.04 52,-0.02Q51.6,0 51.6,0L23,0Z M69.84,-21.68Q68.88,-21.68 68.2,-22.36Q67.52,-23.04 67.52,-24Q67.52,-24.96 68.2,-25.64Q68.88,-26.32 69.84,-26.32Q70.8,-26.32 71.48,-25.64Q72.16,-24.96 72.16,-24Q72.16,-23.04 71.48,-22.36Q70.8,-21.68 69.84,-21.68ZM62.92,-21.68Q61.96,-21.68 61.28,-22.36Q60.6,-23.04 60.6,-24Q60.6,-24.96 61.28,-25.64Q61.96,-26.32 62.92,-26.32Q63.88,-26.32 64.56,-25.64Q65.24,-24.96 65.24,-24Q65.24,-23.04 64.56,-22.36Q63.88,-21.68 62.92,-21.68Z M56.4,0L56.4,-5.6L67.6,-5.6L67.6,-10.72L73.2,-13.6L73.2,-0.92Q73.2,-0.44 72.8,-0.24Q72.4,-0.04 72,-0.02Q71.6,0 71.6,0L56.4,0ZM66.45,-6.8Q64.58,-6.8 63.03,-7.72Q61.48,-8.64 60.54,-10.19Q59.6,-11.75 59.6,-13.59Q59.6,-15.48 60.54,-17.03Q61.48,-18.58 63.04,-19.49Q64.6,-20.4 66.46,-20.4Q68.32,-20.4 69.84,-19.48Q71.36,-18.56 72.28,-17.03Q73.2,-15.49 73.2,-13.6Q73.2,-11.72 72.28,-10.18Q71.36,-8.64 69.84,-7.72Q68.32,-6.8 66.45,-6.8ZM66.44,-12.4Q66.96,-12.4 67.28,-12.75Q67.6,-13.1 67.6,-13.6Q67.6,-14.1 67.28,-14.45Q66.96,-14.8 66.44,-14.8Q65.92,-14.8 65.56,-14.45Q65.2,-14.1 65.2,-13.6Q65.2,-13.1 65.56,-12.75Q65.92,-12.4 66.44,-12.4Z M76.8,0Q76.8,0 76.4,-0.02Q76,-0.04 75.6,-0.24Q75.2,-0.44 75.2,-0.92L75.2,-30.76L80.8,-32L80.8,-5.6L84,-5.6L84,0L76.8,0Z M86.52,-17.4Q85.56,-17.4 84.88,-18.08Q84.2,-18.76 84.2,-19.72Q84.2,-20.68 84.88,-21.36Q85.56,-22.04 86.52,-22.04Q87.48,-22.04 88.16,-21.36Q88.84,-20.68 88.84,-19.72Q88.84,-18.76 88.16,-18.08Q87.48,-17.4 86.52,-17.4Z M87.2,0L87.2,-5.6L96,-5.6L96,0L87.2,0ZM85.6,-8.4L85.6,-15.16L91.2,-16.4L91.2,-8.4L85.6,-8.4ZM82.4,0L82.4,-5.6L85.6,-5.6L85.6,-12.36L91.2,-13.6L91.2,-0.92Q91.2,-0.44 90.8,-0.24Q90.4,-0.04 90,-0.02Q89.6,0 89.6,0L82.4,0Z M109,-27.28Q108.04,-27.28 107.36,-27.96Q106.68,-28.64 106.68,-29.6Q106.68,-30.56 107.36,-31.24Q108.04,-31.92 109,-31.92Q109.96,-31.92 110.64,-31.24Q111.32,-30.56 111.32,-29.6Q111.32,-28.64 110.64,-27.96Q109.96,-27.28 109,-27.28ZM112.44,-21.28Q111.48,-21.28 110.8,-21.96Q110.12,-22.64 110.12,-23.6Q110.12,-24.56 110.8,-25.24Q111.48,-25.92 112.44,-25.92Q113.4,-25.92 114.08,-25.24Q114.76,-24.56 114.76,-23.6Q114.76,-22.64 114.08,-21.96Q113.4,-21.28 112.44,-21.28ZM105.52,-21.28Q104.56,-21.28 103.88,-21.96Q103.2,-22.64 103.2,-23.6Q103.2,-24.56 103.88,-25.24Q104.56,-25.92 105.52,-25.92Q106.48,-25.92 107.16,-25.24Q107.84,-24.56 107.84,-23.6Q107.84,-22.64 107.16,-21.96Q106.48,-21.28 105.52,-21.28Z M94.4,0L94.4,-5.6L97.6,-5.6L97.6,-12.36L103.2,-13.6L103.2,-5.6L105.6,-5.6L105.6,-14.36L111.2,-15.6L111.2,-5.6L113.6,-5.6L113.6,-16.36L119.2,-17.6L119.2,-5.6L124,-5.6L124,0L94.4,0Z M122.4,0L122.4,-5.6L125.6,-5.6L125.6,-30.76L131.2,-32L131.2,-0.92Q131.2,-0.44 130.8,-0.24Q130.4,-0.04 130,-0.02Q129.6,0 129.6,0L122.4,0Z M142.6,-2.32Q142.36,-1.44 141.34,-0.78Q140.32,-0.12 138.94,0.12Q137.56,0.36 136.26,0.06Q134.96,-0.24 134.08,-1.22Q133.2,-2.2 133.2,-4L133.2,-30.76L138.8,-32L138.8,-4Q138.8,-3 139.24,-2.54Q139.68,-2.08 140.32,-1.98Q140.96,-1.88 141.6,-2.02Q142.24,-2.16 142.6,-2.32Z"/>
  </svg>