<svg xmlns="http://www.w3.org/2000/svg" viewBox="0 0 1510.78 768" width="1510.78" height="768" role="img" aria-label="Coupe du maire de Taguilalett">
  <title>Coupe du maire de Taguilalett</title>
    <g transform="translate(128 128) scale(1)">
  <title>Coupe du maire — كأس عمدة التاكلالت</title>

  <!--
    GENERATED by tools/draw/mayor-cup.py. Do not hand-edit the path data.

    The committee's own cup, traced from resources/cup-logo.jpeg scanline by
    scanline; the crown is ours. An event is allowed a mark of its own, and what
    keeps it in the family is the palette — every colour here is a token bound at
    build time, and the hex in each fallback is only so the file previews
    correctly in an editor.

    The cup is an OUTLINE and is open all the way down: two sides that never
    meet, and two ears that are closed hollow rectangles sharing the bowl's wall.
    Its interior is therefore a real opening rather than a hole cut in a mass,
    which is what keeps it open when the crown and the cup collapse to one ink.
  -->
  <path fill="none" stroke="#1f1f1f" stroke-width="16.46" stroke-linecap="round" stroke-linejoin="round" d="M 176.97,192.94 C 176.94,196.77 176.91,200.6 176.87,204.42 C 176.84,208.22 176.8,212 176.78,215.8 C 176.76,219.62 176.78,223.45 176.78,227.28 C 176.78,231.11 176.78,234.93 176.78,238.76 C 176.78,242.59 176.78,246.42 176.78,250.24 C 176.78,254.04 176.78,257.82 176.78,261.62 C 176.78,265.44 176.76,269.27 176.78,273.1 C 176.8,276.93 176.83,280.77 176.87,284.58 C 176.92,288.36 176.91,292.12 177.06,295.87 C 177.22,299.61 177.36,303.38 177.82,307.06 C 178.27,310.72 178.83,314.38 179.79,317.88 C 180.75,321.34 182.01,324.73 183.55,327.95 C 185.11,331.19 187,334.33 189.11,337.27 C 191.23,340.23 193.66,343.04 196.26,345.64 C 198.87,348.25 201.75,350.66 204.72,352.88 C 207.71,355.12 210.95,357.05 214.13,359 C 217.29,360.94 220.66,362.6 223.73,364.55 C 226.7,366.44 229.8,368.2 232.29,370.48 C 234.7,372.67 236.92,375.15 238.5,377.91 C 240.09,380.67 241.07,383.84 241.79,387.04 C 242.55,390.38 242.67,394 242.83,397.57 C 242.99,401.25 242.86,405.03 242.73,408.77 C 242.61,412.53 242.42,416.3 242.08,420.06 C 241.73,423.83 241.31,427.63 240.66,431.35 C 240.02,435.06 239.26,438.76 238.22,442.36 C 237.18,445.94 235.96,449.49 234.45,452.9 C 232.95,456.3 231.18,459.65 229.19,462.78 C 227.2,465.89 224.94,468.84 222.51,471.62 C 220.05,474.42 217.28,477 214.51,479.52 C 211.73,482.05 208.74,484.35 205.85,486.77"/>
  <path fill="none" stroke="#1f1f1f" stroke-width="16.46" stroke-linecap="round" stroke-linejoin="round" d="M 176.97,187.29 C 170.23,187.29 163.09,187.2 156.74,187.29 C 151.1,187.38 144.03,186.03 140.75,187.76 C 138.67,188.86 137.67,190.78 136.98,192.94 C 136.1,195.69 137.04,199.83 137.08,203.29 C 137.11,206.76 137.15,210.26 137.17,213.73 C 137.19,217.19 137.17,220.62 137.17,224.08 C 137.17,227.55 137.15,231.05 137.17,234.53 C 137.19,237.98 137.2,241.42 137.26,244.87 C 137.33,248.35 137.36,251.86 137.55,255.32 C 137.73,258.75 137.97,262.17 138.39,265.57 C 138.82,268.98 139.35,272.38 140.09,275.73 C 140.82,279.09 141.7,282.47 142.82,285.71 C 143.93,288.93 145.23,292.1 146.77,295.12 C 148.3,298.12 150.02,301.12 152.04,303.77 C 154.01,306.38 156.24,308.9 158.72,310.92 C 161.14,312.9 163.89,314.51 166.71,315.81 C 169.54,317.12 172.67,317.76 175.65,318.73"/>
  <path fill="none" stroke="#1f1f1f" stroke-width="16.46" stroke-linecap="round" stroke-linejoin="round" d="M 335.03,192.94 C 335.06,196.77 335.09,200.6 335.13,204.42 C 335.16,208.22 335.2,212 335.22,215.8 C 335.24,219.62 335.22,223.45 335.22,227.28 C 335.22,231.11 335.22,234.93 335.22,238.76 C 335.22,242.59 335.22,246.42 335.22,250.24 C 335.22,254.04 335.22,257.82 335.22,261.62 C 335.22,265.44 335.24,269.27 335.22,273.1 C 335.2,276.93 335.17,280.77 335.13,284.58 C 335.08,288.36 335.09,292.12 334.94,295.87 C 334.78,299.61 334.64,303.38 334.18,307.06 C 333.73,310.72 333.17,314.38 332.21,317.88 C 331.25,321.34 329.99,324.73 328.45,327.95 C 326.89,331.19 325,334.33 322.89,337.27 C 320.77,340.23 318.34,343.04 315.74,345.64 C 313.13,348.25 310.25,350.66 307.28,352.88 C 304.29,355.12 301.05,357.05 297.87,359 C 294.71,360.94 291.34,362.6 288.27,364.55 C 285.3,366.44 282.2,368.2 279.71,370.48 C 277.3,372.67 275.08,375.15 273.5,377.91 C 271.91,380.67 270.93,383.84 270.21,387.04 C 269.45,390.38 269.33,394 269.17,397.57 C 269.01,401.25 269.14,405.03 269.27,408.77 C 269.39,412.53 269.58,416.3 269.92,420.06 C 270.27,423.83 270.69,427.63 271.34,431.35 C 271.98,435.06 272.74,438.76 273.78,442.36 C 274.82,445.94 276.04,449.49 277.55,452.9 C 279.05,456.3 280.82,459.65 282.81,462.78 C 284.8,465.89 287.06,468.84 289.49,471.62 C 291.95,474.42 294.72,477 297.49,479.52 C 300.27,482.05 303.26,484.35 306.15,486.77"/>
  <path fill="none" stroke="#1f1f1f" stroke-width="16.46" stroke-linecap="round" stroke-linejoin="round" d="M 335.03,187.29 C 341.77,187.29 348.91,187.2 355.26,187.29 C 360.9,187.38 367.97,186.03 371.25,187.76 C 373.33,188.86 374.33,190.78 375.02,192.94 C 375.9,195.69 374.96,199.83 374.92,203.29 C 374.89,206.76 374.85,210.26 374.83,213.73 C 374.81,217.19 374.83,220.62 374.83,224.08 C 374.83,227.55 374.85,231.05 374.83,234.53 C 374.81,237.98 374.8,241.42 374.74,244.87 C 374.67,248.35 374.64,251.86 374.45,255.32 C 374.27,258.75 374.03,262.17 373.61,265.57 C 373.18,268.98 372.65,272.38 371.91,275.73 C 371.18,279.09 370.3,282.47 369.18,285.71 C 368.07,288.93 366.77,292.1 365.23,295.12 C 363.7,298.12 361.98,301.12 359.96,303.77 C 357.99,306.38 355.76,308.9 353.28,310.92 C 350.86,312.9 348.11,314.51 345.29,315.81 C 342.46,317.12 339.33,317.76 336.35,318.73"/>
  <path fill="#8f8f8f" d="M 164.74,133.1 L 173.39,87.47 L 193.62,127.46 L 214.7,63.67 L 235.4,120.02 L 256,41.46 L 276.6,120.02 L 297.3,63.67 L 318.38,127.46 L 338.61,87.47 L 347.26,133.1 Z"/>
  <path fill="#8f8f8f" d="M 173.39,63.01 a 16.94,16.94 0 1 1 -0.01,0 Z"/>
  <path fill="#8f8f8f" d="M 214.7,39.2 a 16.94,16.94 0 1 1 -0.01,0 Z"/>
  <path fill="#8f8f8f" d="M 256,17 a 16.94,16.94 0 1 1 -0.01,0 Z"/>
  <path fill="#8f8f8f" d="M 297.3,39.2 a 16.94,16.94 0 1 1 -0.01,0 Z"/>
  <path fill="#8f8f8f" d="M 338.61,63.01 a 16.94,16.94 0 1 1 -0.01,0 Z"/>
  <path fill="#8f8f8f" fill-rule="evenodd" d="M 164.74,127.46 H 347.26 A 6.3,6.3 0 0 1 353.57,133.76 V 161.23 A 6.3,6.3 0 0 1 347.26,167.54 H 164.74 A 6.3,6.3 0 0 1 158.43,161.23 V 133.76 A 6.3,6.3 0 0 1 164.74,127.46 Z M 175.37,141.29 A 5.65,5.65 0 0 0 169.72,146.93 V 148.15 A 5.65,5.65 0 0 0 175.37,153.8 H 336.63 A 5.65,5.65 0 0 0 342.28,148.15 V 146.93 A 5.65,5.65 0 0 0 336.63,141.29 Z"/>
</g>
    <g transform="translate(721.92 304.32)">
    <path d="M9.06,-24.31L13.52,-24.31L22.5,0L17.01,0Q16.36,-1.88 15.48,-4.95L7.07,-4.95Q6.18,-2.23 5.45,0L0.08,0L9.06,-24.31ZM11.33,-17.16Q10.48,-14.82 8.64,-9.41L13.94,-9.41Q12.29,-14.21 11.33,-17.16Z M23.88,-2L25.8,-4.92Q27.69,-3.26 30.6,-3.26Q31.56,-3.26 32.2,-3.76Q32.83,-4.26 32.83,-5.03Q32.83,-6.57 30.34,-6.99Q27.53,-7.45 26,-8.95Q24.46,-10.44 24.46,-12.71Q24.46,-14.94 26.27,-16.42Q28.07,-17.89 30.8,-17.89Q34.52,-17.89 37.32,-15.71L35.4,-12.94Q33.52,-14.21 31.07,-14.21Q29.45,-14.21 29.45,-12.79Q29.45,-11.44 31.72,-10.91Q34.87,-10.14 35.98,-9.18Q37.63,-7.8 37.63,-4.95Q37.63,-2.5 35.87,-1.02Q34.1,0.46 31.1,0.46Q26.8,0.46 23.88,-2Z M39.9,-2L41.82,-4.92Q43.7,-3.26 46.62,-3.26Q47.58,-3.26 48.21,-3.76Q48.84,-4.26 48.84,-5.03Q48.84,-6.57 46.35,-6.99Q43.55,-7.45 42.01,-8.95Q40.47,-10.44 40.47,-12.71Q40.47,-14.94 42.28,-16.42Q44.08,-17.89 46.81,-17.89Q50.53,-17.89 53.34,-15.71L51.42,-12.94Q49.54,-14.21 47.08,-14.21Q45.47,-14.21 45.47,-12.79Q45.47,-11.44 47.73,-10.91Q50.88,-10.14 51.99,-9.18Q53.64,-7.8 53.64,-4.95Q53.64,-2.5 51.88,-1.02Q50.11,0.46 47.12,0.46Q42.82,0.46 39.9,-2Z M64.63,-17.89Q68.97,-17.89 71.39,-14.86Q73.38,-12.36 73.38,-8.68Q73.38,-4.42 70.35,-1.73Q67.89,0.46 64.63,0.46Q60.86,0.46 58.29,-2.38Q55.91,-4.95 55.91,-8.68Q55.91,-12.94 58.48,-15.51Q60.86,-17.89 64.63,-17.89ZM61.25,-8.68Q61.25,-3.42 64.67,-3.42Q68.04,-3.42 68.04,-8.68Q68.04,-14.21 64.63,-14.21Q61.25,-14.21 61.25,-8.68Z M91.85,-15.24L90.24,-12.44Q88.28,-14.25 86.02,-14.25Q83.98,-14.25 82.68,-12.65Q81.37,-11.06 81.37,-8.52Q81.37,-6.18 82.64,-4.7Q83.9,-3.23 85.9,-3.23Q88.44,-3.23 90.2,-5.18L92.01,-2.34Q89.13,0.46 85.44,0.46Q80.95,0.46 78.3,-2.38Q76.03,-4.88 76.03,-8.64Q76.03,-12.86 78.95,-15.55Q81.52,-17.89 85.21,-17.89Q89.43,-17.89 91.85,-15.24Z M101.3,-17.43L101.3,0L96.04,0L96.04,-17.43L101.3,-17.43ZM98.53,-18.7Q97.15,-18.7 96.27,-19.62Q95.39,-20.54 95.39,-22Q95.39,-23.35 96.33,-24.33Q97.27,-25.31 98.53,-25.31Q99.96,-25.31 100.92,-24.35Q101.88,-23.39 101.88,-22Q101.88,-20.54 100.95,-19.62Q100.03,-18.7 98.53,-18.7Z M120.88,0L116.66,0L116.28,-1.61Q116.2,-1.57 116.04,-1.42Q113.82,0.46 111.24,0.46Q105.45,0.46 105.45,-5.22Q105.45,-8.03 107.83,-9.56Q110.36,-11.21 115.28,-11.21L115.78,-11.21L115.78,-11.25Q115.78,-12.79 115.16,-13.32Q114.55,-13.86 112.82,-13.86Q110.28,-13.86 108.21,-12.25Q107.44,-13.63 106.83,-14.94Q109.21,-16.7 110.8,-17.3Q112.4,-17.89 114.74,-17.89Q120.88,-17.89 120.88,-10.14L120.88,0ZM115.58,-8.06L115.32,-8.06Q113.28,-8.06 111.97,-7.33Q110.67,-6.6 110.67,-5.45Q110.67,-3.26 112.47,-3.26Q113.7,-3.26 114.59,-3.99Q115.47,-4.72 115.58,-5.84L115.58,-8.06Z M136.05,-4.3L137.78,-1.65Q134.86,0.65 131.37,0.65Q126.72,0.65 126.72,-4.49L126.72,-13.25L124.34,-13.25L124.34,-17.43L126.76,-17.43L126.76,-20.43Q129.02,-21.66 132.02,-23.23L132.02,-17.43L136.93,-17.43L136.93,-13.25L131.98,-13.25L131.98,-4.99Q131.98,-3.92 132.21,-3.57Q132.44,-3.23 133.09,-3.23Q134.17,-3.23 136.05,-4.3Z M147.07,-17.43L147.07,0L141.81,0L141.81,-17.43L147.07,-17.43ZM144.31,-18.7Q142.92,-18.7 142.04,-19.62Q141.16,-20.54 141.16,-22Q141.16,-23.35 142.1,-24.33Q143.04,-25.31 144.31,-25.31Q145.73,-25.31 146.69,-24.35Q147.65,-23.39 147.65,-22Q147.65,-20.54 146.73,-19.62Q145.8,-18.7 144.31,-18.7Z M159.94,-17.89Q164.28,-17.89 166.69,-14.86Q168.69,-12.36 168.69,-8.68Q168.69,-4.42 165.66,-1.73Q163.2,0.46 159.94,0.46Q156.17,0.46 153.6,-2.38Q151.22,-4.95 151.22,-8.68Q151.22,-12.94 153.79,-15.51Q156.17,-17.89 159.94,-17.89ZM156.56,-8.68Q156.56,-3.42 159.97,-3.42Q163.35,-3.42 163.35,-8.68Q163.35,-14.21 159.94,-14.21Q156.56,-14.21 156.56,-8.68Z M177.52,-15.74Q178.25,-16.63 179.81,-17.26Q181.36,-17.89 182.71,-17.89Q186.05,-17.89 187.49,-16.13Q188.93,-14.36 188.93,-10.21L188.93,0L183.67,0L183.67,-10.02Q183.67,-13.52 180.56,-13.52Q179.75,-13.52 178.89,-13.21Q178.02,-12.9 177.72,-12.52L177.72,0L172.49,0L172.49,-17.43L176.95,-17.43L177.52,-15.74Z M214.58,-16.55L214.58,-21.81L219.8,-24.69L219.8,0L215.62,0L214.85,-1.84Q214.27,-0.84 212.91,-0.19Q211.55,0.46 210.12,0.46Q205.94,0.46 203.79,-2.27Q202.02,-4.49 202.02,-8.03Q202.02,-13.17 204.98,-15.86Q207.17,-17.89 210.2,-17.89Q212.81,-17.89 214.58,-16.55ZM214.58,-11.29Q214.31,-12.6 213.43,-13.4Q212.54,-14.21 211.35,-14.21Q209.47,-14.21 208.42,-12.75Q207.36,-11.29 207.36,-8.76Q207.36,-3.26 210.74,-3.26Q212.08,-3.26 213.27,-4.4Q214.46,-5.53 214.58,-6.95L214.58,-11.29Z M241.23,-7.03L229.32,-7.03Q229.44,-5.45 230.67,-4.36Q231.9,-3.26 233.47,-3.26Q235.97,-3.26 238.77,-4.84L240.08,-2.07Q238.85,-0.96 236.85,-0.25Q234.85,0.46 233.01,0.46Q228.52,0.46 226.02,-2.04Q223.6,-4.42 223.6,-8.64Q223.6,-12.75 226.33,-15.44Q228.83,-17.89 232.63,-17.89Q236.81,-17.89 239.16,-15.17Q241.23,-12.79 241.23,-8.95L241.23,-7.03ZM229.02,-10.87L236.01,-10.87Q235.81,-14.25 232.55,-14.25Q229.4,-14.25 229.02,-10.87Z M243.88,-2L245.8,-4.92Q247.68,-3.26 250.6,-3.26Q251.56,-3.26 252.19,-3.76Q252.83,-4.26 252.83,-5.03Q252.83,-6.57 250.33,-6.99Q247.53,-7.45 245.99,-8.95Q244.45,-10.44 244.45,-12.71Q244.45,-14.94 246.26,-16.42Q248.06,-17.89 250.79,-17.89Q254.52,-17.89 257.32,-15.71L255.4,-12.94Q253.52,-14.21 251.06,-14.21Q249.45,-14.21 249.45,-12.79Q249.45,-11.44 251.71,-10.91Q254.86,-10.14 255.97,-9.18Q257.63,-7.8 257.63,-4.95Q257.63,-2.5 255.86,-1.02Q254.09,0.46 251.1,0.46Q246.8,0.46 243.88,-2Z M275.9,-24.31L275.9,0.88Q275.9,6.45 270.49,6.45Q267.26,6.45 264.65,4.42L266.46,1.42Q268.03,2.46 269.45,2.46Q270.57,2.46 270.57,0.61L270.57,-24.31L275.9,-24.31Z M297.41,-7.03L285.5,-7.03Q285.62,-5.45 286.85,-4.36Q288.08,-3.26 289.65,-3.26Q292.15,-3.26 294.95,-4.84L296.26,-2.07Q295.03,-0.96 293.03,-0.25Q291.03,0.46 289.19,0.46Q284.7,0.46 282.2,-2.04Q279.78,-4.42 279.78,-8.64Q279.78,-12.75 282.51,-15.44Q285,-17.89 288.81,-17.89Q292.99,-17.89 295.33,-15.17Q297.41,-12.79 297.41,-8.95L297.41,-7.03ZM285.2,-10.87L292.19,-10.87Q291.99,-14.25 288.73,-14.25Q285.58,-14.25 285.2,-10.87Z M312.54,-2Q310.73,0.46 307.32,0.46Q303.94,0.46 302.57,-1.21Q301.21,-2.88 301.21,-6.99L301.21,-17.43L306.36,-17.43L306.36,-8.41Q306.36,-5.8 306.97,-4.82Q307.58,-3.84 309.24,-3.84Q309.85,-3.84 310.69,-4.17Q311.54,-4.49 311.65,-4.84L311.65,-17.43L316.88,-17.43L316.88,0L313,0L312.54,-2Z M326.86,-15.74Q327.59,-16.63 329.15,-17.26Q330.7,-17.89 332.04,-17.89Q335.39,-17.89 336.83,-16.13Q338.27,-14.36 338.27,-10.21L338.27,0L333,0L333,-10.02Q333,-13.52 329.89,-13.52Q329.09,-13.52 328.22,-13.21Q327.36,-12.9 327.05,-12.52L327.05,0L321.83,0L321.83,-17.43L326.28,-17.43L326.86,-15.74Z M359.5,-7.03L347.6,-7.03Q347.71,-5.45 348.94,-4.36Q350.17,-3.26 351.74,-3.26Q354.24,-3.26 357.04,-4.84L358.35,-2.07Q357.12,-0.96 355.12,-0.25Q353.13,0.46 351.28,0.46Q346.79,0.46 344.29,-2.04Q341.88,-4.42 341.88,-8.64Q341.88,-12.75 344.6,-15.44Q347.1,-17.89 350.9,-17.89Q355.08,-17.89 357.43,-15.17Q359.5,-12.79 359.5,-8.95L359.5,-7.03ZM347.29,-10.87L354.28,-10.87Q354.09,-14.25 350.82,-14.25Q347.67,-14.25 347.29,-10.87Z M362.15,-2L364.07,-4.92Q365.95,-3.26 368.87,-3.26Q369.83,-3.26 370.46,-3.76Q371.1,-4.26 371.1,-5.03Q371.1,-6.57 368.6,-6.99Q365.8,-7.45 364.26,-8.95Q362.73,-10.44 362.73,-12.71Q362.73,-14.94 364.53,-16.42Q366.34,-17.89 369.06,-17.89Q372.79,-17.89 375.59,-15.71L373.67,-12.94Q371.79,-14.21 369.33,-14.21Q367.72,-14.21 367.72,-12.79Q367.72,-11.44 369.98,-10.91Q373.13,-10.14 374.25,-9.18Q375.9,-7.8 375.9,-4.95Q375.9,-2.5 374.13,-1.02Q372.36,0.46 369.37,0.46Q365.07,0.46 362.15,-2Z M400.59,-16.55L400.59,-21.81L405.81,-24.69L405.81,0L401.63,0L400.86,-1.84Q400.28,-0.84 398.92,-0.19Q397.56,0.46 396.13,0.46Q391.95,0.46 389.8,-2.27Q388.03,-4.49 388.03,-8.03Q388.03,-13.17 390.99,-15.86Q393.18,-17.89 396.21,-17.89Q398.82,-17.89 400.59,-16.55ZM400.59,-11.29Q400.32,-12.6 399.44,-13.4Q398.55,-14.21 397.36,-14.21Q395.48,-14.21 394.43,-12.75Q393.37,-11.29 393.37,-8.76Q393.37,-3.26 396.75,-3.26Q398.09,-3.26 399.28,-4.4Q400.47,-5.53 400.59,-6.95L400.59,-11.29Z M427.24,-7.03L415.33,-7.03Q415.45,-5.45 416.68,-4.36Q417.91,-3.26 419.48,-3.26Q421.98,-3.26 424.78,-4.84L426.09,-2.07Q424.86,-0.96 422.86,-0.25Q420.86,0.46 419.02,0.46Q414.53,0.46 412.03,-2.04Q409.61,-4.42 409.61,-8.64Q409.61,-12.75 412.34,-15.44Q414.84,-17.89 418.64,-17.89Q422.82,-17.89 425.16,-15.17Q427.24,-12.79 427.24,-8.95L427.24,-7.03ZM415.03,-10.87L422.02,-10.87Q421.82,-14.25 418.56,-14.25Q415.41,-14.25 415.03,-10.87Z M445.44,-20.01L438.49,-20.01L438.49,-24.31L458.38,-24.31L458.38,-20.01L450.89,-20.01L450.89,0L445.44,0L445.44,-20.01Z M473.86,0L469.63,0L469.25,-1.61Q469.17,-1.57 469.02,-1.42Q466.79,0.46 464.22,0.46Q458.42,0.46 458.42,-5.22Q458.42,-8.03 460.8,-9.56Q463.33,-11.21 468.25,-11.21L468.75,-11.21L468.75,-11.25Q468.75,-12.79 468.13,-13.32Q467.52,-13.86 465.79,-13.86Q463.26,-13.86 461.18,-12.25Q460.42,-13.63 459.8,-14.94Q462.18,-16.7 463.78,-17.3Q465.37,-17.89 467.71,-17.89Q473.86,-17.89 473.86,-10.14L473.86,0ZM468.56,-8.06L468.29,-8.06Q466.25,-8.06 464.95,-7.33Q463.64,-6.6 463.64,-5.45Q463.64,-3.26 465.45,-3.26Q466.68,-3.26 467.56,-3.99Q468.44,-4.72 468.56,-5.84L468.56,-8.06Z M490.29,-2.19Q488.56,0.46 485.45,0.46Q481.61,0.46 479.5,-2.27Q477.73,-4.53 477.73,-8.03Q477.73,-13.13 480.69,-15.86Q482.92,-17.89 485.91,-17.89Q488.41,-17.89 490.14,-16.67Q491.33,-15.78 491.17,-15.55L491.56,-17.43L495.55,-17.43L495.55,-1.84Q495.55,2.5 493.36,4.92Q491.17,7.33 487.1,7.33Q482.76,7.33 479.81,4.49L481.08,1.88Q483.42,3.38 486.37,3.38Q490.29,3.38 490.29,-2.15L490.29,-2.19ZM490.29,-7.53L490.29,-11.29Q490.18,-12.48 489.22,-13.34Q488.26,-14.21 487.07,-14.21Q485.22,-14.21 484.17,-12.75Q483.11,-11.29 483.11,-8.76Q483.11,-3.26 486.57,-3.26Q488.1,-3.26 489.2,-4.45Q490.29,-5.64 490.29,-7.33Q490.29,-7.41 490.29,-7.53Z M511.87,-2Q510.07,0.46 506.65,0.46Q503.27,0.46 501.91,-1.21Q500.54,-2.88 500.54,-6.99L500.54,-17.43L505.69,-17.43L505.69,-8.41Q505.69,-5.8 506.3,-4.82Q506.92,-3.84 508.57,-3.84Q509.18,-3.84 510.03,-4.17Q510.87,-4.49 510.99,-4.84L510.99,-17.43L516.21,-17.43L516.21,0L512.33,0L511.87,-2Z M526.89,-17.43L526.89,0L521.63,0L521.63,-17.43L526.89,-17.43ZM524.12,-18.7Q522.74,-18.7 521.86,-19.62Q520.97,-20.54 520.97,-22Q520.97,-23.35 521.91,-24.33Q522.85,-25.31 524.12,-25.31Q525.54,-25.31 526.5,-24.35Q527.46,-23.39 527.46,-22Q527.46,-20.54 526.54,-19.62Q525.62,-18.7 524.12,-18.7Z M537.41,-24.77L537.41,0L532.19,0L532.19,-22.04Q533.72,-22.77 536.76,-24.42L537.14,-24.61L537.41,-24.77Z M556.65,0L552.42,0L552.04,-1.61Q551.96,-1.57 551.81,-1.42Q549.58,0.46 547.01,0.46Q541.21,0.46 541.21,-5.22Q541.21,-8.03 543.59,-9.56Q546.12,-11.21 551.04,-11.21L551.54,-11.21L551.54,-11.25Q551.54,-12.79 550.92,-13.32Q550.31,-13.86 548.58,-13.86Q546.05,-13.86 543.97,-12.25Q543.21,-13.63 542.59,-14.94Q544.97,-16.7 546.57,-17.3Q548.16,-17.89 550.5,-17.89Q556.65,-17.89 556.65,-10.14L556.65,0ZM551.35,-8.06L551.08,-8.06Q549.04,-8.06 547.74,-7.33Q546.43,-6.6 546.43,-5.45Q546.43,-3.26 548.24,-3.26Q549.47,-3.26 550.35,-3.99Q551.23,-4.72 551.35,-5.84L551.35,-8.06Z M566.71,-24.77L566.71,0L561.48,0L561.48,-22.04Q563.02,-22.77 566.05,-24.42L566.44,-24.61L566.71,-24.77Z M588.13,-7.03L576.23,-7.03Q576.35,-5.45 577.57,-4.36Q578.8,-3.26 580.38,-3.26Q582.87,-3.26 585.68,-4.84L586.98,-2.07Q585.75,-0.96 583.76,-0.25Q581.76,0.46 579.92,0.46Q575.42,0.46 572.93,-2.04Q570.51,-4.42 570.51,-8.64Q570.51,-12.75 573.24,-15.44Q575.73,-17.89 579.53,-17.89Q583.72,-17.89 586.06,-15.17Q588.13,-12.79 588.13,-8.95L588.13,-7.03ZM575.92,-10.87L582.91,-10.87Q582.72,-14.25 579.46,-14.25Q576.31,-14.25 575.92,-10.87Z M602.27,-4.3L603.99,-1.65Q601.08,0.65 597.58,0.65Q592.93,0.65 592.93,-4.49L592.93,-13.25L590.55,-13.25L590.55,-17.43L592.97,-17.43L592.97,-20.43Q595.24,-21.66 598.23,-23.23L598.23,-17.43L603.15,-17.43L603.15,-13.25L598.2,-13.25L598.2,-4.99Q598.2,-3.92 598.43,-3.57Q598.66,-3.23 599.31,-3.23Q600.38,-3.23 602.27,-4.3Z M617.89,-4.3L619.62,-1.65Q616.7,0.65 613.21,0.65Q608.56,0.65 608.56,-4.49L608.56,-13.25L606.18,-13.25L606.18,-17.43L608.6,-17.43L608.6,-20.43Q610.87,-21.66 613.86,-23.23L613.86,-17.43L618.78,-17.43L618.78,-13.25L613.82,-13.25L613.82,-4.99Q613.82,-3.92 614.05,-3.57Q614.28,-3.23 614.94,-3.23Q616.01,-3.23 617.89,-4.3Z" fill="#6e6e6e" transform="translate(0 30.72)"/>
    <path d="M50.59,-53.86L45.41,-45.22Q38.4,-50.4 32.93,-50.4Q25.82,-50.4 21.7,-44.83Q17.57,-39.26 17.57,-29.76Q17.57,-22.27 21.7,-16.7Q26.21,-10.66 33.98,-10.66Q38.98,-10.66 46.18,-15.17L51.36,-7.1Q43.39,1.15 32.35,1.15Q16.51,1.15 8.83,-10.56Q3.55,-18.72 3.55,-29.76Q3.55,-44.54 11.04,-53.18Q18.53,-61.92 32.16,-61.92Q41.18,-61.92 50.59,-53.86Z M77.57,-44.74Q88.42,-44.74 94.46,-37.15Q99.46,-30.91 99.46,-21.7Q99.46,-11.04 91.87,-4.32Q85.73,1.15 77.57,1.15Q68.16,1.15 61.73,-5.95Q55.78,-12.38 55.78,-21.7Q55.78,-32.35 62.21,-38.78Q68.16,-44.74 77.57,-44.74ZM69.12,-21.7Q69.12,-8.54 77.66,-8.54Q86.11,-8.54 86.11,-21.7Q86.11,-35.52 77.57,-35.52Q69.12,-35.52 69.12,-21.7Z M137.28,-4.99Q132.77,1.15 124.22,1.15Q115.78,1.15 112.37,-3.02Q108.96,-7.2 108.96,-17.47L108.96,-43.58L121.82,-43.58L121.82,-21.02Q121.82,-14.5 123.36,-12.05Q124.9,-9.6 129.02,-9.6Q130.56,-9.6 132.67,-10.42Q134.78,-11.23 135.07,-12.1L135.07,-43.58L148.13,-43.58L148.13,0L138.43,0L137.28,-4.99Z M173.38,-2.02L173.38,17.09L160.51,17.09L160.51,-43.58L170.3,-43.58L171.55,-39.55Q175.3,-44.74 182.4,-44.74Q192.77,-44.74 198.53,-37.82Q203.52,-31.97 203.52,-22.66Q203.52,-10.56 196.13,-4.03Q190.37,1.15 181.92,1.15Q179.62,1.15 176.93,0.14Q174.24,-0.86 173.38,-2.02ZM173.38,-16.22Q173.38,-7.87 180.58,-7.87Q184.51,-7.87 187.2,-11.86Q189.89,-15.84 189.89,-21.7Q189.89,-27.94 187.54,-31.68Q185.18,-35.42 181.25,-35.42Q173.38,-35.42 173.38,-25.73L173.38,-16.22Z M254.21,-17.57L224.45,-17.57Q224.74,-13.63 227.81,-10.9Q230.88,-8.16 234.82,-8.16Q241.06,-8.16 248.06,-12.1L251.33,-5.18Q248.26,-2.4 243.26,-0.62Q238.27,1.15 233.66,1.15Q222.43,1.15 216.19,-5.09Q210.14,-11.04 210.14,-21.6Q210.14,-31.87 216.96,-38.59Q223.2,-44.74 232.7,-44.74Q243.17,-44.74 249.02,-37.92Q254.21,-31.97 254.21,-22.37L254.21,-17.57ZM223.68,-27.17L241.15,-27.17Q240.67,-35.62 232.51,-35.62Q224.64,-35.62 223.68,-27.17Z M315.94,-41.38L315.94,-54.53L328.99,-61.73L328.99,0L318.53,0L316.61,-4.61Q315.17,-2.11 311.76,-0.48Q308.35,1.15 304.8,1.15Q294.34,1.15 288.96,-5.66Q284.54,-11.23 284.54,-20.06Q284.54,-32.93 291.94,-39.65Q297.41,-44.74 304.99,-44.74Q311.52,-44.74 315.94,-41.38ZM315.94,-28.22Q315.26,-31.49 313.06,-33.5Q310.85,-35.52 307.87,-35.52Q303.17,-35.52 300.53,-31.87Q297.89,-28.22 297.89,-21.89Q297.89,-8.16 306.34,-8.16Q309.7,-8.16 312.67,-10.99Q315.65,-13.82 315.94,-17.38L315.94,-28.22Z M369.7,-4.99Q365.18,1.15 356.64,1.15Q348.19,1.15 344.78,-3.02Q341.38,-7.2 341.38,-17.47L341.38,-43.58L354.24,-43.58L354.24,-21.02Q354.24,-14.5 355.78,-12.05Q357.31,-9.6 361.44,-9.6Q362.98,-9.6 365.09,-10.42Q367.2,-11.23 367.49,-12.1L367.49,-43.58L380.54,-43.58L380.54,0L370.85,0L369.7,-4.99Z M428.64,-39.36Q434.21,-44.74 442.56,-44.74Q448.22,-44.74 452.59,-42.34Q456.96,-39.94 458.69,-35.9Q460.61,-39.74 465.22,-42.24Q469.82,-44.74 475.1,-44.74Q490.37,-44.74 490.37,-26.11L490.37,0L477.22,0L477.22,-22.46Q477.22,-28.7 475.54,-31.25Q473.86,-33.79 469.82,-33.79Q463.39,-33.79 459.65,-28.9L459.55,0L446.5,0L446.5,-24Q446.5,-29.47 444.62,-31.63Q442.75,-33.79 438.05,-33.79Q432.77,-33.79 429.7,-31.3L429.7,0L416.64,0L416.64,-43.58L427.78,-43.58L428.64,-39.36Z M538.08,0L527.52,0L526.56,-4.03Q526.37,-3.94 525.98,-3.55Q520.42,1.15 513.98,1.15Q499.49,1.15 499.49,-13.06Q499.49,-20.06 505.44,-23.9Q511.78,-28.03 524.06,-28.03L525.31,-28.03L525.31,-28.13Q525.31,-31.97 523.78,-33.31Q522.24,-34.66 517.92,-34.66Q511.58,-34.66 506.4,-30.62Q504.48,-34.08 502.94,-37.34Q508.9,-41.76 512.88,-43.25Q516.86,-44.74 522.72,-44.74Q538.08,-44.74 538.08,-25.34L538.08,0ZM524.83,-20.16L524.16,-20.16Q519.07,-20.16 515.81,-18.34Q512.54,-16.51 512.54,-13.63Q512.54,-8.16 517.06,-8.16Q520.13,-8.16 522.34,-9.98Q524.54,-11.81 524.83,-14.59L524.83,-20.16Z M564.48,-43.58L564.48,0L551.33,0L551.33,-43.58L564.48,-43.58ZM557.57,-46.75Q554.11,-46.75 551.9,-49.06Q549.7,-51.36 549.7,-55.01Q549.7,-58.37 552.05,-60.82Q554.4,-63.26 557.57,-63.26Q561.12,-63.26 563.52,-60.86Q565.92,-58.46 565.92,-55.01Q565.92,-51.36 563.62,-49.06Q561.31,-46.75 557.57,-46.75Z M588.77,-43.58L590.02,-40.03Q590.88,-41.86 593.57,-43.3Q596.26,-44.74 598.94,-44.74Q607.87,-44.74 612.19,-36Q610.56,-35.14 606.72,-33.12Q603.07,-31.1 601.25,-30.14Q598.08,-33.89 594.53,-33.89Q591.74,-33.89 590.59,-30.91L590.59,0L577.73,0L577.73,-43.58L588.77,-43.58Z M657.6,-17.57L627.84,-17.57Q628.13,-13.63 631.2,-10.9Q634.27,-8.16 638.21,-8.16Q644.45,-8.16 651.46,-12.1L654.72,-5.18Q651.65,-2.4 646.66,-0.62Q641.66,1.15 637.06,1.15Q625.82,1.15 619.58,-5.09Q613.54,-11.04 613.54,-21.6Q613.54,-31.87 620.35,-38.59Q626.59,-44.74 636.1,-44.74Q646.56,-44.74 652.42,-37.92Q657.6,-31.97 657.6,-22.37L657.6,-17.57ZM627.07,-27.17L644.54,-27.17Q644.06,-35.62 635.9,-35.62Q628.03,-35.62 627.07,-27.17Z" fill="#3a3a3a" transform="translate(0 140.16)"/>
    </g>
</svg>
