<svg xmlns="http://www.w3.org/2000/svg" viewBox="0 0 834.26 968.88" width="834.26" height="968.88" role="img" aria-label="Coupe du maire de Taguilalett">
  <title>Coupe du maire de Taguilalett</title>
    <g transform="translate(161.13 128) scale(1)">
  <title>Coupe du maire — كأس عمدة التاكلالت</title>

  <!--
    GENERATED by tools/draw/mayor-cup.py. Do not hand-edit the path data.

    The committee's own cup, traced from resources/cup-logo.jpeg scanline by
    scanline; the crown is ours. An event is allowed a mark of its own, and what
    keeps it in the family is the palette — every colour here is a token bound at
    build time, and the hex in each fallback is only so the file previews
    correctly in an editor.

    The cup is an OUTLINE and is open all the way down: two sides that never
    meet, and two ears that are closed hollow rectangles sharing the bowl's wall.
    Its interior is therefore a real opening rather than a hole cut in a mass,
    which is what keeps it open when the crown and the cup collapse to one ink.
  -->
  <path fill="none" stroke="#1a3f33" stroke-width="16.46" stroke-linecap="round" stroke-linejoin="round" d="M 176.97,192.94 C 176.94,196.77 176.91,200.6 176.87,204.42 C 176.84,208.22 176.8,212 176.78,215.8 C 176.76,219.62 176.78,223.45 176.78,227.28 C 176.78,231.11 176.78,234.93 176.78,238.76 C 176.78,242.59 176.78,246.42 176.78,250.24 C 176.78,254.04 176.78,257.82 176.78,261.62 C 176.78,265.44 176.76,269.27 176.78,273.1 C 176.8,276.93 176.83,280.77 176.87,284.58 C 176.92,288.36 176.91,292.12 177.06,295.87 C 177.22,299.61 177.36,303.38 177.82,307.06 C 178.27,310.72 178.83,314.38 179.79,317.88 C 180.75,321.34 182.01,324.73 183.55,327.95 C 185.11,331.19 187,334.33 189.11,337.27 C 191.23,340.23 193.66,343.04 196.26,345.64 C 198.87,348.25 201.75,350.66 204.72,352.88 C 207.71,355.12 210.95,357.05 214.13,359 C 217.29,360.94 220.66,362.6 223.73,364.55 C 226.7,366.44 229.8,368.2 232.29,370.48 C 234.7,372.67 236.92,375.15 238.5,377.91 C 240.09,380.67 241.07,383.84 241.79,387.04 C 242.55,390.38 242.67,394 242.83,397.57 C 242.99,401.25 242.86,405.03 242.73,408.77 C 242.61,412.53 242.42,416.3 242.08,420.06 C 241.73,423.83 241.31,427.63 240.66,431.35 C 240.02,435.06 239.26,438.76 238.22,442.36 C 237.18,445.94 235.96,449.49 234.45,452.9 C 232.95,456.3 231.18,459.65 229.19,462.78 C 227.2,465.89 224.94,468.84 222.51,471.62 C 220.05,474.42 217.28,477 214.51,479.52 C 211.73,482.05 208.74,484.35 205.85,486.77"/>
  <path fill="none" stroke="#1a3f33" stroke-width="16.46" stroke-linecap="round" stroke-linejoin="round" d="M 176.97,187.29 C 170.23,187.29 163.09,187.2 156.74,187.29 C 151.1,187.38 144.03,186.03 140.75,187.76 C 138.67,188.86 137.67,190.78 136.98,192.94 C 136.1,195.69 137.04,199.83 137.08,203.29 C 137.11,206.76 137.15,210.26 137.17,213.73 C 137.19,217.19 137.17,220.62 137.17,224.08 C 137.17,227.55 137.15,231.05 137.17,234.53 C 137.19,237.98 137.2,241.42 137.26,244.87 C 137.33,248.35 137.36,251.86 137.55,255.32 C 137.73,258.75 137.97,262.17 138.39,265.57 C 138.82,268.98 139.35,272.38 140.09,275.73 C 140.82,279.09 141.7,282.47 142.82,285.71 C 143.93,288.93 145.23,292.1 146.77,295.12 C 148.3,298.12 150.02,301.12 152.04,303.77 C 154.01,306.38 156.24,308.9 158.72,310.92 C 161.14,312.9 163.89,314.51 166.71,315.81 C 169.54,317.12 172.67,317.76 175.65,318.73"/>
  <path fill="none" stroke="#1a3f33" stroke-width="16.46" stroke-linecap="round" stroke-linejoin="round" d="M 335.03,192.94 C 335.06,196.77 335.09,200.6 335.13,204.42 C 335.16,208.22 335.2,212 335.22,215.8 C 335.24,219.62 335.22,223.45 335.22,227.28 C 335.22,231.11 335.22,234.93 335.22,238.76 C 335.22,242.59 335.22,246.42 335.22,250.24 C 335.22,254.04 335.22,257.82 335.22,261.62 C 335.22,265.44 335.24,269.27 335.22,273.1 C 335.2,276.93 335.17,280.77 335.13,284.58 C 335.08,288.36 335.09,292.12 334.94,295.87 C 334.78,299.61 334.64,303.38 334.18,307.06 C 333.73,310.72 333.17,314.38 332.21,317.88 C 331.25,321.34 329.99,324.73 328.45,327.95 C 326.89,331.19 325,334.33 322.89,337.27 C 320.77,340.23 318.34,343.04 315.74,345.64 C 313.13,348.25 310.25,350.66 307.28,352.88 C 304.29,355.12 301.05,357.05 297.87,359 C 294.71,360.94 291.34,362.6 288.27,364.55 C 285.3,366.44 282.2,368.2 279.71,370.48 C 277.3,372.67 275.08,375.15 273.5,377.91 C 271.91,380.67 270.93,383.84 270.21,387.04 C 269.45,390.38 269.33,394 269.17,397.57 C 269.01,401.25 269.14,405.03 269.27,408.77 C 269.39,412.53 269.58,416.3 269.92,420.06 C 270.27,423.83 270.69,427.63 271.34,431.35 C 271.98,435.06 272.74,438.76 273.78,442.36 C 274.82,445.94 276.04,449.49 277.55,452.9 C 279.05,456.3 280.82,459.65 282.81,462.78 C 284.8,465.89 287.06,468.84 289.49,471.62 C 291.95,474.42 294.72,477 297.49,479.52 C 300.27,482.05 303.26,484.35 306.15,486.77"/>
  <path fill="none" stroke="#1a3f33" stroke-width="16.46" stroke-linecap="round" stroke-linejoin="round" d="M 335.03,187.29 C 341.77,187.29 348.91,187.2 355.26,187.29 C 360.9,187.38 367.97,186.03 371.25,187.76 C 373.33,188.86 374.33,190.78 375.02,192.94 C 375.9,195.69 374.96,199.83 374.92,203.29 C 374.89,206.76 374.85,210.26 374.83,213.73 C 374.81,217.19 374.83,220.62 374.83,224.08 C 374.83,227.55 374.85,231.05 374.83,234.53 C 374.81,237.98 374.8,241.42 374.74,244.87 C 374.67,248.35 374.64,251.86 374.45,255.32 C 374.27,258.75 374.03,262.17 373.61,265.57 C 373.18,268.98 372.65,272.38 371.91,275.73 C 371.18,279.09 370.3,282.47 369.18,285.71 C 368.07,288.93 366.77,292.1 365.23,295.12 C 363.7,298.12 361.98,301.12 359.96,303.77 C 357.99,306.38 355.76,308.9 353.28,310.92 C 350.86,312.9 348.11,314.51 345.29,315.81 C 342.46,317.12 339.33,317.76 336.35,318.73"/>
  <path fill="#1a3f33" d="M 164.74,133.1 L 173.39,87.47 L 193.62,127.46 L 214.7,63.67 L 235.4,120.02 L 256,41.46 L 276.6,120.02 L 297.3,63.67 L 318.38,127.46 L 338.61,87.47 L 347.26,133.1 Z"/>
  <path fill="#1a3f33" d="M 173.39,63.01 a 16.94,16.94 0 1 1 -0.01,0 Z"/>
  <path fill="#1a3f33" d="M 214.7,39.2 a 16.94,16.94 0 1 1 -0.01,0 Z"/>
  <path fill="#1a3f33" d="M 256,17 a 16.94,16.94 0 1 1 -0.01,0 Z"/>
  <path fill="#1a3f33" d="M 297.3,39.2 a 16.94,16.94 0 1 1 -0.01,0 Z"/>
  <path fill="#1a3f33" d="M 338.61,63.01 a 16.94,16.94 0 1 1 -0.01,0 Z"/>
  <path fill="#1a3f33" fill-rule="evenodd" d="M 164.74,127.46 H 347.26 A 6.3,6.3 0 0 1 353.57,133.76 V 161.23 A 6.3,6.3 0 0 1 347.26,167.54 H 164.74 A 6.3,6.3 0 0 1 158.43,161.23 V 133.76 A 6.3,6.3 0 0 1 164.74,127.46 Z M 175.37,141.29 A 5.65,5.65 0 0 0 169.72,146.93 V 148.15 A 5.65,5.65 0 0 0 175.37,153.8 H 336.63 A 5.65,5.65 0 0 0 342.28,148.15 V 146.93 A 5.65,5.65 0 0 0 336.63,141.29 Z"/>
</g>
    <g transform="translate(128 701.44)">
    <path d="M7.93,-21.27L11.83,-21.27L19.69,0L14.88,0Q14.31,-1.65 13.54,-4.33L6.18,-4.33Q5.41,-1.95 4.77,0L0.07,0L7.93,-21.27ZM9.91,-15.02Q9.17,-12.97 7.56,-8.23L12.2,-8.23Q10.75,-12.43 9.91,-15.02Z M20.9,-1.75L22.58,-4.3Q24.23,-2.86 26.78,-2.86Q27.62,-2.86 28.17,-3.29Q28.73,-3.73 28.73,-4.4Q28.73,-5.75 26.54,-6.12Q24.09,-6.52 22.75,-7.83Q21.4,-9.14 21.4,-11.12Q21.4,-13.07 22.98,-14.36Q24.56,-15.66 26.95,-15.66Q30.21,-15.66 32.66,-13.74L30.98,-11.32Q29.33,-12.43 27.18,-12.43Q25.77,-12.43 25.77,-11.19Q25.77,-10.01 27.75,-9.54Q30.51,-8.87 31.48,-8.03Q32.93,-6.82 32.93,-4.33Q32.93,-2.18 31.38,-0.89Q29.84,0.4 27.22,0.4Q23.45,0.4 20.9,-1.75Z M34.91,-1.75L36.59,-4.3Q38.24,-2.86 40.79,-2.86Q41.63,-2.86 42.18,-3.29Q42.74,-3.73 42.74,-4.4Q42.74,-5.75 40.56,-6.12Q38.1,-6.52 36.76,-7.83Q35.41,-9.14 35.41,-11.12Q35.41,-13.07 36.99,-14.36Q38.57,-15.66 40.96,-15.66Q44.22,-15.66 46.67,-13.74L44.99,-11.32Q43.34,-12.43 41.19,-12.43Q39.78,-12.43 39.78,-11.19Q39.78,-10.01 41.76,-9.54Q44.52,-8.87 45.49,-8.03Q46.94,-6.82 46.94,-4.33Q46.94,-2.18 45.39,-0.89Q43.85,0.4 41.23,0.4Q37.46,0.4 34.91,-1.75Z M56.55,-15.66Q60.35,-15.66 62.46,-13Q64.21,-10.82 64.21,-7.59Q64.21,-3.86 61.56,-1.51Q59.4,0.4 56.55,0.4Q53.26,0.4 51,-2.08Q48.92,-4.33 48.92,-7.59Q48.92,-11.32 51.17,-13.57Q53.26,-15.66 56.55,-15.66ZM53.59,-7.59Q53.59,-2.99 56.58,-2.99Q59.54,-2.99 59.54,-7.59Q59.54,-12.43 56.55,-12.43Q53.59,-12.43 53.59,-7.59Z M80.37,-13.34L78.96,-10.89Q77.25,-12.47 75.26,-12.47Q73.48,-12.47 72.34,-11.07Q71.2,-9.68 71.2,-7.46Q71.2,-5.41 72.31,-4.12Q73.42,-2.82 75.16,-2.82Q77.38,-2.82 78.93,-4.54L80.51,-2.05Q77.99,0.4 74.76,0.4Q70.83,0.4 68.51,-2.08Q66.53,-4.27 66.53,-7.56Q66.53,-11.26 69.08,-13.61Q71.33,-15.66 74.56,-15.66Q78.25,-15.66 80.37,-13.34Z M88.64,-15.25L88.64,0L84.03,0L84.03,-15.25L88.64,-15.25ZM86.22,-16.36Q85.01,-16.36 84.24,-17.17Q83.46,-17.98 83.46,-19.25Q83.46,-20.43 84.29,-21.29Q85.11,-22.14 86.22,-22.14Q87.46,-22.14 88.3,-21.3Q89.14,-20.46 89.14,-19.25Q89.14,-17.98 88.33,-17.17Q87.53,-16.36 86.22,-16.36Z M105.77,0L102.08,0L101.74,-1.41Q101.67,-1.38 101.54,-1.24Q99.59,0.4 97.34,0.4Q92.27,0.4 92.27,-4.57Q92.27,-7.02 94.35,-8.37Q96.57,-9.81 100.87,-9.81L101.3,-9.81L101.3,-9.84Q101.3,-11.19 100.77,-11.66Q100.23,-12.13 98.72,-12.13Q96.5,-12.13 94.68,-10.72Q94.01,-11.93 93.48,-13.07Q95.56,-14.62 96.95,-15.14Q98.35,-15.66 100.4,-15.66Q105.77,-15.66 105.77,-8.87L105.77,0ZM101.14,-7.06L100.9,-7.06Q99.12,-7.06 97.98,-6.42Q96.84,-5.78 96.84,-4.77Q96.84,-2.86 98.41,-2.86Q99.49,-2.86 100.26,-3.49Q101.04,-4.13 101.14,-5.11L101.14,-7.06Z M119.04,-3.76L120.56,-1.44Q118,0.57 114.95,0.57Q110.88,0.57 110.88,-3.93L110.88,-11.59L108.8,-11.59L108.8,-15.25L110.91,-15.25L110.91,-17.88Q112.9,-18.95 115.52,-20.33L115.52,-15.25L119.82,-15.25L119.82,-11.59L115.48,-11.59L115.48,-4.37Q115.48,-3.43 115.68,-3.12Q115.89,-2.82 116.46,-2.82Q117.4,-2.82 119.04,-3.76Z M128.69,-15.25L128.69,0L124.08,0L124.08,-15.25L128.69,-15.25ZM126.27,-16.36Q125.06,-16.36 124.29,-17.17Q123.51,-17.98 123.51,-19.25Q123.51,-20.43 124.34,-21.29Q125.16,-22.14 126.27,-22.14Q127.51,-22.14 128.35,-21.3Q129.19,-20.46 129.19,-19.25Q129.19,-17.98 128.39,-17.17Q127.58,-16.36 126.27,-16.36Z M139.94,-15.66Q143.74,-15.66 145.86,-13Q147.6,-10.82 147.6,-7.59Q147.6,-3.86 144.95,-1.51Q142.8,0.4 139.94,0.4Q136.65,0.4 134.4,-2.08Q132.32,-4.33 132.32,-7.59Q132.32,-11.32 134.57,-13.57Q136.65,-15.66 139.94,-15.66ZM136.99,-7.59Q136.99,-2.99 139.98,-2.99Q142.93,-2.99 142.93,-7.59Q142.93,-12.43 139.94,-12.43Q136.99,-12.43 136.99,-7.59Z M155.33,-13.78Q155.97,-14.55 157.33,-15.1Q158.69,-15.66 159.87,-15.66Q162.79,-15.66 164.05,-14.11Q165.31,-12.57 165.31,-8.94L165.31,0L160.71,0L160.71,-8.77Q160.71,-11.83 157.99,-11.83Q157.28,-11.83 156.53,-11.56Q155.77,-11.29 155.5,-10.95L155.5,0L150.93,0L150.93,-15.25L154.83,-15.25L155.33,-13.78Z M187.76,-14.48L187.76,-19.08L192.33,-21.6L192.33,0L188.66,0L187.99,-1.61Q187.49,-0.74 186.3,-0.17Q185.1,0.4 183.86,0.4Q180.2,0.4 178.32,-1.98Q176.77,-3.93 176.77,-7.02Q176.77,-11.52 179.36,-13.88Q181.27,-15.66 183.93,-15.66Q186.21,-15.66 187.76,-14.48ZM187.76,-9.88Q187.52,-11.02 186.75,-11.73Q185.98,-12.43 184.93,-12.43Q183.29,-12.43 182.36,-11.16Q181.44,-9.88 181.44,-7.66Q181.44,-2.86 184.4,-2.86Q185.57,-2.86 186.61,-3.85Q187.66,-4.84 187.76,-6.08L187.76,-9.88Z M211.08,-6.15L200.66,-6.15Q200.76,-4.77 201.84,-3.81Q202.91,-2.86 204.29,-2.86Q206.47,-2.86 208.92,-4.23L210.07,-1.81Q208.99,-0.84 207.24,-0.22Q205.5,0.4 203.88,0.4Q199.95,0.4 197.77,-1.78Q195.65,-3.86 195.65,-7.56Q195.65,-11.16 198.04,-13.51Q200.22,-15.66 203.55,-15.66Q207.21,-15.66 209.26,-13.27Q211.08,-11.19 211.08,-7.83L211.08,-6.15ZM200.39,-9.51L206.51,-9.51Q206.34,-12.47 203.48,-12.47Q200.73,-12.47 200.39,-9.51Z M213.39,-1.75L215.07,-4.3Q216.72,-2.86 219.27,-2.86Q220.11,-2.86 220.67,-3.29Q221.22,-3.73 221.22,-4.4Q221.22,-5.75 219.04,-6.12Q216.59,-6.52 215.24,-7.83Q213.9,-9.14 213.9,-11.12Q213.9,-13.07 215.48,-14.36Q217.06,-15.66 219.44,-15.66Q222.7,-15.66 225.15,-13.74L223.47,-11.32Q221.83,-12.43 219.68,-12.43Q218.27,-12.43 218.27,-11.19Q218.27,-10.01 220.25,-9.54Q223,-8.87 223.98,-8.03Q225.42,-6.82 225.42,-4.33Q225.42,-2.18 223.88,-0.89Q222.33,0.4 219.71,0.4Q215.95,0.4 213.39,-1.75Z M241.42,-21.27L241.42,0.77Q241.42,5.64 236.68,5.64Q233.86,5.64 231.57,3.86L233.15,1.24Q234.53,2.15 235.77,2.15Q236.75,2.15 236.75,0.54L236.75,-21.27L241.42,-21.27Z M260.23,-6.15L249.82,-6.15Q249.92,-4.77 250.99,-3.81Q252.07,-2.86 253.44,-2.86Q255.63,-2.86 258.08,-4.23L259.22,-1.81Q258.15,-0.84 256.4,-0.22Q254.65,0.4 253.04,0.4Q249.11,0.4 246.93,-1.78Q244.81,-3.86 244.81,-7.56Q244.81,-11.16 247.2,-13.51Q249.38,-15.66 252.71,-15.66Q256.37,-15.66 258.42,-13.27Q260.23,-11.19 260.23,-7.83L260.23,-6.15ZM249.55,-9.51L255.66,-9.51Q255.49,-12.47 252.64,-12.47Q249.88,-12.47 249.55,-9.51Z M273.47,-1.75Q271.89,0.4 268.9,0.4Q265.94,0.4 264.75,-1.06Q263.56,-2.52 263.56,-6.12L263.56,-15.25L268.06,-15.25L268.06,-7.36Q268.06,-5.07 268.6,-4.22Q269.14,-3.36 270.58,-3.36Q271.12,-3.36 271.86,-3.65Q272.6,-3.93 272.7,-4.23L272.7,-15.25L277.27,-15.25L277.27,0L273.87,0L273.47,-1.75Z M286,-13.78Q286.64,-14.55 288,-15.1Q289.36,-15.66 290.54,-15.66Q293.46,-15.66 294.72,-14.11Q295.98,-12.57 295.98,-8.94L295.98,0L291.38,0L291.38,-8.77Q291.38,-11.83 288.66,-11.83Q287.95,-11.83 287.2,-11.56Q286.44,-11.29 286.17,-10.95L286.17,0L281.6,0L281.6,-15.25L285.5,-15.25L286,-13.78Z M314.56,-6.15L304.15,-6.15Q304.25,-4.77 305.32,-3.81Q306.4,-2.86 307.78,-2.86Q309.96,-2.86 312.41,-4.23L313.56,-1.81Q312.48,-0.84 310.73,-0.22Q308.99,0.4 307.37,0.4Q303.44,0.4 301.26,-1.78Q299.14,-3.86 299.14,-7.56Q299.14,-11.16 301.53,-13.51Q303.71,-15.66 307.04,-15.66Q310.7,-15.66 312.75,-13.27Q314.56,-11.19 314.56,-7.83L314.56,-6.15ZM303.88,-9.51L309.99,-9.51Q309.83,-12.47 306.97,-12.47Q304.21,-12.47 303.88,-9.51Z M316.88,-1.75L318.56,-4.3Q320.21,-2.86 322.76,-2.86Q323.6,-2.86 324.16,-3.29Q324.71,-3.73 324.71,-4.4Q324.71,-5.75 322.53,-6.12Q320.07,-6.52 318.73,-7.83Q317.39,-9.14 317.39,-11.12Q317.39,-13.07 318.96,-14.36Q320.54,-15.66 322.93,-15.66Q326.19,-15.66 328.64,-13.74L326.96,-11.32Q325.32,-12.43 323.16,-12.43Q321.75,-12.43 321.75,-11.19Q321.75,-10.01 323.74,-9.54Q326.49,-8.87 327.47,-8.03Q328.91,-6.82 328.91,-4.33Q328.91,-2.18 327.36,-0.89Q325.82,0.4 323.2,0.4Q319.44,0.4 316.88,-1.75Z M350.52,-14.48L350.52,-19.08L355.08,-21.6L355.08,0L351.42,0L350.75,-1.61Q350.25,-0.74 349.05,-0.17Q347.86,0.4 346.62,0.4Q342.96,0.4 341.07,-1.98Q339.53,-3.93 339.53,-7.02Q339.53,-11.52 342.12,-13.88Q344.03,-15.66 346.68,-15.66Q348.97,-15.66 350.52,-14.48ZM350.52,-9.88Q350.28,-11.02 349.51,-11.73Q348.73,-12.43 347.69,-12.43Q346.05,-12.43 345.12,-11.16Q344.2,-9.88 344.2,-7.66Q344.2,-2.86 347.16,-2.86Q348.33,-2.86 349.37,-3.85Q350.41,-4.84 350.52,-6.08L350.52,-9.88Z M373.83,-6.15L363.42,-6.15Q363.52,-4.77 364.59,-3.81Q365.67,-2.86 367.05,-2.86Q369.23,-2.86 371.68,-4.23L372.83,-1.81Q371.75,-0.84 370,-0.22Q368.26,0.4 366.64,0.4Q362.71,0.4 360.53,-1.78Q358.41,-3.86 358.41,-7.56Q358.41,-11.16 360.8,-13.51Q362.98,-15.66 366.31,-15.66Q369.97,-15.66 372.02,-13.27Q373.83,-11.19 373.83,-7.83L373.83,-6.15ZM363.15,-9.51L369.26,-9.51Q369.1,-12.47 366.24,-12.47Q363.48,-12.47 363.15,-9.51Z M389.76,-17.51L383.68,-17.51L383.68,-21.27L401.08,-21.27L401.08,-17.51L394.53,-17.51L394.53,0L389.76,0L389.76,-17.51Z M414.62,0L410.93,0L410.59,-1.41Q410.52,-1.38 410.39,-1.24Q408.44,0.4 406.19,0.4Q401.12,0.4 401.12,-4.57Q401.12,-7.02 403.2,-8.37Q405.42,-9.81 409.72,-9.81L410.16,-9.81L410.16,-9.84Q410.16,-11.19 409.62,-11.66Q409.08,-12.13 407.57,-12.13Q405.35,-12.13 403.54,-10.72Q402.86,-11.93 402.33,-13.07Q404.41,-14.62 405.8,-15.14Q407.2,-15.66 409.25,-15.66Q414.62,-15.66 414.62,-8.87L414.62,0ZM409.99,-7.06L409.75,-7.06Q407.97,-7.06 406.83,-6.42Q405.69,-5.78 405.69,-4.77Q405.69,-2.86 407.27,-2.86Q408.34,-2.86 409.11,-3.49Q409.89,-4.13 409.99,-5.11L409.99,-7.06Z M429,-1.92Q427.49,0.4 424.77,0.4Q421.41,0.4 419.56,-1.98Q418.02,-3.96 418.02,-7.02Q418.02,-11.49 420.6,-13.88Q422.55,-15.66 425.17,-15.66Q427.36,-15.66 428.87,-14.58Q429.91,-13.81 429.78,-13.61L430.11,-15.25L433.61,-15.25L433.61,-1.61Q433.61,2.18 431.69,4.3Q429.78,6.42 426.22,6.42Q422.42,6.42 419.83,3.93L420.94,1.65Q422.99,2.96 425.58,2.96Q429,2.96 429,-1.88L429,-1.92ZM429,-6.59L429,-9.88Q428.9,-10.92 428.06,-11.68Q427.22,-12.43 426.18,-12.43Q424.57,-12.43 423.65,-11.16Q422.72,-9.88 422.72,-7.66Q422.72,-2.86 425.75,-2.86Q427.09,-2.86 428.05,-3.9Q429,-4.94 429,-6.42Q429,-6.48 429,-6.59Z M447.89,-1.75Q446.31,0.4 443.32,0.4Q440.36,0.4 439.17,-1.06Q437.98,-2.52 437.98,-6.12L437.98,-15.25L442.48,-15.25L442.48,-7.36Q442.48,-5.07 443.02,-4.22Q443.55,-3.36 445,-3.36Q445.54,-3.36 446.28,-3.65Q447.01,-3.93 447.12,-4.23L447.12,-15.25L451.68,-15.25L451.68,0L448.29,0L447.89,-1.75Z M461.03,-15.25L461.03,0L456.42,0L456.42,-15.25L461.03,-15.25ZM458.61,-16.36Q457.4,-16.36 456.62,-17.17Q455.85,-17.98 455.85,-19.25Q455.85,-20.43 456.67,-21.29Q457.5,-22.14 458.61,-22.14Q459.85,-22.14 460.69,-21.3Q461.53,-20.46 461.53,-19.25Q461.53,-17.98 460.72,-17.17Q459.92,-16.36 458.61,-16.36Z M470.23,-21.67L470.23,0L465.66,0L465.66,-19.29Q467.01,-19.92 469.66,-21.37L470,-21.54L470.23,-21.67Z M487.07,0L483.37,0L483.03,-1.41Q482.97,-1.38 482.83,-1.24Q480.88,0.4 478.63,0.4Q473.56,0.4 473.56,-4.57Q473.56,-7.02 475.64,-8.37Q477.86,-9.81 482.16,-9.81L482.6,-9.81L482.6,-9.84Q482.6,-11.19 482.06,-11.66Q481.52,-12.13 480.01,-12.13Q477.79,-12.13 475.98,-10.72Q475.31,-11.93 474.77,-13.07Q476.85,-14.62 478.25,-15.14Q479.64,-15.66 481.69,-15.66Q487.07,-15.66 487.07,-8.87L487.07,0ZM482.43,-7.06L482.19,-7.06Q480.41,-7.06 479.27,-6.42Q478.13,-5.78 478.13,-4.77Q478.13,-2.86 479.71,-2.86Q480.78,-2.86 481.56,-3.49Q482.33,-4.13 482.43,-5.11L482.43,-7.06Z M495.87,-21.67L495.87,0L491.3,0L491.3,-19.29Q492.64,-19.92 495.3,-21.37L495.63,-21.54L495.87,-21.67Z M514.62,-6.15L504.2,-6.15Q504.3,-4.77 505.38,-3.81Q506.45,-2.86 507.83,-2.86Q510.01,-2.86 512.47,-4.23L513.61,-1.81Q512.53,-0.84 510.79,-0.22Q509.04,0.4 507.43,0.4Q503.5,0.4 501.31,-1.78Q499.2,-3.86 499.2,-7.56Q499.2,-11.16 501.58,-13.51Q503.76,-15.66 507.09,-15.66Q510.75,-15.66 512.8,-13.27Q514.62,-11.19 514.62,-7.83L514.62,-6.15ZM503.93,-9.51L510.05,-9.51Q509.88,-12.47 507.02,-12.47Q504.27,-12.47 503.93,-9.51Z M526.98,-3.76L528.49,-1.44Q525.94,0.57 522.88,0.57Q518.82,0.57 518.82,-3.93L518.82,-11.59L516.73,-11.59L516.73,-15.25L518.85,-15.25L518.85,-17.88Q520.83,-18.95 523.45,-20.33L523.45,-15.25L527.76,-15.25L527.76,-11.59L523.42,-11.59L523.42,-4.37Q523.42,-3.43 523.62,-3.12Q523.82,-2.82 524.4,-2.82Q525.34,-2.82 526.98,-3.76Z M540.66,-3.76L542.17,-1.44Q539.62,0.57 536.56,0.57Q532.49,0.57 532.49,-3.93L532.49,-11.59L530.41,-11.59L530.41,-15.25L532.53,-15.25L532.53,-17.88Q534.51,-18.95 537.13,-20.33L537.13,-15.25L541.43,-15.25L541.43,-11.59L537.1,-11.59L537.1,-4.37Q537.1,-3.43 537.3,-3.12Q537.5,-2.82 538.07,-2.82Q539.01,-2.82 540.66,-3.76Z" fill="#1a3f33" transform="translate(17.57 26.88)"/>
    <path d="M44.27,-47.12L39.73,-39.56Q33.6,-44.1 28.81,-44.1Q22.6,-44.1 18.98,-39.23Q15.37,-34.36 15.37,-26.04Q15.37,-19.49 18.98,-14.62Q22.93,-9.32 29.74,-9.32Q34.1,-9.32 40.4,-13.27L44.94,-6.22Q37.97,1.01 28.31,1.01Q14.45,1.01 7.73,-9.24Q3.11,-16.38 3.11,-26.04Q3.11,-38.98 9.66,-46.54Q16.21,-54.18 28.14,-54.18Q36.04,-54.18 44.27,-47.12Z M67.87,-39.14Q77.36,-39.14 82.66,-32.51Q87.02,-27.05 87.02,-18.98Q87.02,-9.66 80.39,-3.78Q75.01,1.01 67.87,1.01Q59.64,1.01 54.01,-5.21Q48.8,-10.84 48.8,-18.98Q48.8,-28.31 54.43,-33.94Q59.64,-39.14 67.87,-39.14ZM60.48,-18.98Q60.48,-7.48 67.96,-7.48Q75.35,-7.48 75.35,-18.98Q75.35,-31.08 67.87,-31.08Q60.48,-31.08 60.48,-18.98Z M120.12,-4.37Q116.17,1.01 108.7,1.01Q101.3,1.01 98.32,-2.65Q95.34,-6.3 95.34,-15.29L95.34,-38.14L106.6,-38.14L106.6,-18.4Q106.6,-12.68 107.94,-10.54Q109.28,-8.4 112.9,-8.4Q114.24,-8.4 116.09,-9.11Q117.94,-9.83 118.19,-10.58L118.19,-38.14L129.61,-38.14L129.61,0L121.13,0L120.12,-4.37Z M151.7,-1.76L151.7,14.95L140.45,14.95L140.45,-38.14L149.02,-38.14L150.11,-34.61Q153.38,-39.14 159.6,-39.14Q168.67,-39.14 173.71,-33.1Q178.08,-27.97 178.08,-19.82Q178.08,-9.24 171.61,-3.53Q166.57,1.01 159.18,1.01Q157.16,1.01 154.81,0.13Q152.46,-0.76 151.7,-1.76ZM151.7,-14.2Q151.7,-6.89 158,-6.89Q161.45,-6.89 163.8,-10.37Q166.15,-13.86 166.15,-18.98Q166.15,-24.44 164.09,-27.72Q162.04,-31 158.59,-31Q151.7,-31 151.7,-22.51L151.7,-14.2Z M222.43,-15.37L196.39,-15.37Q196.64,-11.93 199.33,-9.53Q202.02,-7.14 205.46,-7.14Q210.92,-7.14 217.06,-10.58L219.91,-4.54Q217.22,-2.1 212.86,-0.55Q208.49,1.01 204.46,1.01Q194.63,1.01 189.17,-4.45Q183.88,-9.66 183.88,-18.9Q183.88,-27.89 189.84,-33.77Q195.3,-39.14 203.62,-39.14Q212.77,-39.14 217.9,-33.18Q222.43,-27.97 222.43,-19.57L222.43,-15.37ZM195.72,-23.77L211.01,-23.77Q210.59,-31.16 203.45,-31.16Q196.56,-31.16 195.72,-23.77Z M276.44,-36.2L276.44,-47.71L287.87,-54.01L287.87,0L278.71,0L277.03,-4.03Q275.77,-1.85 272.79,-0.42Q269.81,1.01 266.7,1.01Q257.54,1.01 252.84,-4.96Q248.98,-9.83 248.98,-17.56Q248.98,-28.81 255.44,-34.69Q260.23,-39.14 266.87,-39.14Q272.58,-39.14 276.44,-36.2ZM276.44,-24.7Q275.86,-27.55 273.92,-29.32Q271.99,-31.08 269.39,-31.08Q265.27,-31.08 262.96,-27.89Q260.65,-24.7 260.65,-19.15Q260.65,-7.14 268.04,-7.14Q270.98,-7.14 273.59,-9.62Q276.19,-12.1 276.44,-15.2L276.44,-24.7Z M323.48,-4.37Q319.54,1.01 312.06,1.01Q304.67,1.01 301.69,-2.65Q298.7,-6.3 298.7,-15.29L298.7,-38.14L309.96,-38.14L309.96,-18.4Q309.96,-12.68 311.3,-10.54Q312.65,-8.4 316.26,-8.4Q317.6,-8.4 319.45,-9.11Q321.3,-9.83 321.55,-10.58L321.55,-38.14L332.98,-38.14L332.98,0L324.49,0L323.48,-4.37Z M375.06,-34.44Q379.93,-39.14 387.24,-39.14Q392.2,-39.14 396.02,-37.04Q399.84,-34.94 401.35,-31.42Q403.03,-34.78 407.06,-36.96Q411.1,-39.14 415.72,-39.14Q429.07,-39.14 429.07,-22.85L429.07,0L417.56,0L417.56,-19.66Q417.56,-25.12 416.09,-27.34Q414.62,-29.57 411.1,-29.57Q405.47,-29.57 402.19,-25.28L402.11,0L390.68,0L390.68,-21Q390.68,-25.79 389.05,-27.68Q387.41,-29.57 383.29,-29.57Q378.67,-29.57 375.98,-27.38L375.98,0L364.56,0L364.56,-38.14L374.3,-38.14L375.06,-34.44Z M470.82,0L461.58,0L460.74,-3.53Q460.57,-3.44 460.24,-3.11Q455.36,1.01 449.74,1.01Q437.05,1.01 437.05,-11.42Q437.05,-17.56 442.26,-20.92Q447.8,-24.53 458.56,-24.53L459.65,-24.53L459.65,-24.61Q459.65,-27.97 458.3,-29.15Q456.96,-30.32 453.18,-30.32Q447.64,-30.32 443.1,-26.8Q441.42,-29.82 440.08,-32.68Q445.28,-36.54 448.77,-37.84Q452.26,-39.14 457.38,-39.14Q470.82,-39.14 470.82,-22.18L470.82,0ZM459.23,-17.64L458.64,-17.64Q454.19,-17.64 451.33,-16.04Q448.48,-14.45 448.48,-11.93Q448.48,-7.14 452.42,-7.14Q455.11,-7.14 457.04,-8.74Q458.98,-10.33 459.23,-12.77L459.23,-17.64Z M493.92,-38.14L493.92,0L482.41,0L482.41,-38.14L493.92,-38.14ZM487.87,-40.91Q484.85,-40.91 482.92,-42.92Q480.98,-44.94 480.98,-48.13Q480.98,-51.07 483.04,-53.21Q485.1,-55.36 487.87,-55.36Q490.98,-55.36 493.08,-53.26Q495.18,-51.16 495.18,-48.13Q495.18,-44.94 493.16,-42.92Q491.15,-40.91 487.87,-40.91Z M515.17,-38.14L516.26,-35.03Q517.02,-36.62 519.37,-37.88Q521.72,-39.14 524.08,-39.14Q531.89,-39.14 535.67,-31.5Q534.24,-30.74 530.88,-28.98Q527.69,-27.22 526.09,-26.38Q523.32,-29.65 520.21,-29.65Q517.78,-29.65 516.77,-27.05L516.77,0L505.51,0L505.51,-38.14L515.17,-38.14Z M575.4,-15.37L549.36,-15.37Q549.61,-11.93 552.3,-9.53Q554.99,-7.14 558.43,-7.14Q563.89,-7.14 570.02,-10.58L572.88,-4.54Q570.19,-2.1 565.82,-0.55Q561.46,1.01 557.42,1.01Q547.6,1.01 542.14,-4.45Q536.84,-9.66 536.84,-18.9Q536.84,-27.89 542.81,-33.77Q548.27,-39.14 556.58,-39.14Q565.74,-39.14 570.86,-33.18Q575.4,-27.97 575.4,-19.57L575.4,-15.37ZM548.69,-23.77L563.98,-23.77Q563.56,-31.16 556.42,-31.16Q549.53,-31.16 548.69,-23.77Z" fill="#1a3f33" transform="translate(0 122.64)"/>
    </g>
</svg>
